<svg xmlns="http://www.w3.org/2000/svg" width="40" height="40" baseProfile="full" version="1.1"><rect width="1" height="1" x="15" y="4" fill="#000"/><rect width="1" height="1" x="16" y="4" fill="#000"/><rect width="1" height="1" x="17" y="4" fill="#000"/><rect width="1" height="1" x="18" y="4" fill="#000"/><rect width="1" height="1" x="19" y="4" fill="#000"/><rect width="1" height="1" x="20" y="4" fill="#000"/><rect width="1" height="1" x="21" y="4" fill="#000"/><rect width="1" height="1" x="22" y="4" fill="#000"/><rect width="1" height="1" x="23" y="4" fill="#000"/><rect width="1" height="1" x="24" y="4" fill="#000"/><rect width="1" height="1" x="13" y="5" fill="#000"/><rect width="1" height="1" x="14" y="5" fill="#000"/><rect width="1" height="1" x="15" y="5" fill="#CD4C2C"/><rect width="1" height="1" x="16" y="5" fill="#CD4C2C"/><rect width="1" height="1" x="17" y="5" fill="#CD4C2C"/><rect width="1" height="1" x="18" y="5" fill="#D34E2E"/><rect width="1" height="1" x="19" y="5" fill="#D44F2E"/><rect width="1" height="1" x="20" y="5" fill="#D44F2F"/><rect width="1" height="1" x="21" y="5" fill="#D44F2E"/><rect width="1" height="1" x="22" y="5" fill="#D44F2E"/><rect width="1" height="1" x="23" y="5" fill="#CF4C2B"/><rect width="1" height="1" x="24" y="5" fill="#CD4C2C"/><rect width="1" height="1" x="25" y="5" fill="#000"/><rect width="1" height="1" x="26" y="5" fill="#000"/><rect width="1" height="1" x="11" y="6" fill="#000"/><rect width="1" height="1" x="12" y="6" fill="#000"/><rect width="1" height="1" x="13" y="6" fill="#E55835"/><rect width="1" height="1" x="14" y="6" fill="#E25532"/><rect width="1" height="1" x="15" y="6" fill="#E25532"/><rect width="1" height="1" x="16" y="6" fill="#CD4C2C"/><rect width="1" height="1" x="17" y="6" fill="#CD4C2C"/><rect width="1" height="1" x="18" y="6" fill="#CD4C2C"/><rect width="1" height="1" x="19" y="6" fill="#CC4C2C"/><rect width="1" height="1" x="20" y="6" fill="#CC4C2C"/><rect width="1" height="1" x="21" y="6" fill="#CC4B2C"/><rect width="1" height="1" x="22" y="6" fill="#CC4B2C"/><rect width="1" height="1" x="23" y="6" fill="#CD4C2D"/><rect width="1" height="1" x="24" y="6" fill="#CB4B2C"/><rect width="1" height="1" x="25" y="6" fill="#CD4C2C"/><rect width="1" height="1" x="26" y="6" fill="#CD4C2C"/><rect width="1" height="1" x="27" y="6" fill="#000"/><rect width="1" height="1" x="28" y="6" fill="#000"/><rect width="1" height="1" x="10" y="7" fill="#000"/><rect width="1" height="1" x="11" y="7" fill="#E25532"/><rect width="1" height="1" x="12" y="7" fill="#E25532"/><rect width="1" height="1" x="13" y="7" fill="#E25532"/><rect width="1" height="1" x="14" y="7" fill="#E25532"/><rect width="1" height="1" x="15" y="7" fill="#E25532"/><rect width="1" height="1" x="16" y="7" fill="#E25532"/><rect width="1" height="1" x="17" y="7" fill="#CD4C2C"/><rect width="1" height="1" x="18" y="7" fill="#CD4C2C"/><rect width="1" height="1" x="19" y="7" fill="#CD4C2C"/><rect width="1" height="1" x="20" y="7" fill="#CE4D2E"/><rect width="1" height="1" x="21" y="7" fill="#CE4D2D"/><rect width="1" height="1" x="22" y="7" fill="#CE4D2D"/><rect width="1" height="1" x="23" y="7" fill="#CD4C2C"/><rect width="1" height="1" x="24" y="7" fill="#CE4C2D"/><rect width="1" height="1" x="25" y="7" fill="#CD4C2C"/><rect width="1" height="1" x="26" y="7" fill="#CD4C2C"/><rect width="1" height="1" x="27" y="7" fill="#CD4C2C"/><rect width="1" height="1" x="28" y="7" fill="#CD4C2C"/><rect width="1" height="1" x="29" y="7" fill="#000"/><rect width="1" height="1" x="9" y="8" fill="#000"/><rect width="1" height="1" x="10" y="8" fill="#E25532"/><rect width="1" height="1" x="11" y="8" fill="#E25532"/><rect width="1" height="1" x="12" y="8" fill="#E25532"/><rect width="1" height="1" x="13" y="8" fill="#E25532"/><rect width="1" height="1" x="14" y="8" fill="#E25532"/><rect width="1" height="1" x="15" y="8" fill="#E25532"/><rect width="1" height="1" x="16" y="8" fill="#E25532"/><rect width="1" height="1" x="17" y="8" fill="#E25532"/><rect width="1" height="1" x="18" y="8" fill="#E25532"/><rect width="1" height="1" x="19" y="8" fill="#CD4C2C"/><rect width="1" height="1" x="20" y="8" fill="#CD4C2C"/><rect width="1" height="1" x="21" y="8" fill="#CE4D2E"/><rect width="1" height="1" x="22" y="8" fill="#CD4C2D"/><rect width="1" height="1" x="23" y="8" fill="#CE4D2D"/><rect width="1" height="1" x="24" y="8" fill="#CE4C2D"/><rect width="1" height="1" x="25" y="8" fill="#CD4C2C"/><rect width="1" height="1" x="26" y="8" fill="#CF4E2F"/><rect width="1" height="1" x="27" y="8" fill="#C84A2B"/><rect width="1" height="1" x="28" y="8" fill="#CD4C2C"/><rect width="1" height="1" x="29" y="8" fill="#CD4C2C"/><rect width="1" height="1" x="30" y="8" fill="#000"/><rect width="1" height="1" x="8" y="9" fill="#000"/><rect width="1" height="1" x="9" y="9" fill="#E25532"/><rect width="1" height="1" x="10" y="9" fill="#E25532"/><rect width="1" height="1" x="11" y="9" fill="#E25532"/><rect width="1" height="1" x="12" y="9" fill="#E25532"/><rect width="1" height="1" x="13" y="9" fill="#E25532"/><rect width="1" height="1" x="14" y="9" fill="#E25532"/><rect width="1" height="1" x="15" y="9" fill="#E25532"/><rect width="1" height="1" x="16" y="9" fill="#E25532"/><rect width="1" height="1" x="17" y="9" fill="#E25532"/><rect width="1" height="1" x="18" y="9" fill="#E25532"/><rect width="1" height="1" x="19" y="9" fill="#E25532"/><rect width="1" height="1" x="20" y="9" fill="#E25532"/><rect width="1" height="1" x="21" y="9" fill="#E25532"/><rect width="1" height="1" x="22" y="9" fill="#CE4D2D"/><rect width="1" height="1" x="23" y="9" fill="#CE4D2D"/><rect width="1" height="1" x="24" y="9" fill="#CE4C2D"/><rect width="1" height="1" x="25" y="9" fill="#CD4C2D"/><rect width="1" height="1" x="26" y="9" fill="#CD4B2C"/><rect width="1" height="1" x="27" y="9" fill="#CF4E2F"/><rect width="1" height="1" x="28" y="9" fill="#CA4B2C"/><rect width="1" height="1" x="29" y="9" fill="#CD4C2C"/><rect width="1" height="1" x="30" y="9" fill="#CD4C2C"/><rect width="1" height="1" x="31" y="9" fill="#000"/><rect width="1" height="1" x="7" y="10" fill="#000"/><rect width="1" height="1" x="8" y="10" fill="#D75030"/><rect width="1" height="1" x="9" y="10" fill="#E25532"/><rect width="1" height="1" x="10" y="10" fill="#E25532"/><rect width="1" height="1" x="11" y="10" fill="#E25532"/><rect width="1" height="1" x="12" y="10" fill="#E25532"/><rect width="1" height="1" x="13" y="10" fill="#E25532"/><rect width="1" height="1" x="14" y="10" fill="#E25532"/><rect width="1" height="1" x="15" y="10" fill="#E25532"/><rect width="1" height="1" x="16" y="10" fill="#E25532"/><rect width="1" height="1" x="17" y="10" fill="#E25532"/><rect width="1" height="1" x="18" y="10" fill="#E25532"/><rect width="1" height="1" x="19" y="10" fill="#E25532"/><rect width="1" height="1" x="20" y="10" fill="#E25532"/><rect width="1" height="1" x="21" y="10" fill="#E25532"/><rect width="1" height="1" x="22" y="10" fill="#E25532"/><rect width="1" height="1" x="23" y="10" fill="#CE4C2D"/><rect width="1" height="1" x="24" y="10" fill="#CE4D2E"/><rect width="1" height="1" x="25" y="10" fill="#CE4D2D"/><rect width="1" height="1" x="26" y="10" fill="#CE4D2E"/><rect width="1" height="1" x="27" y="10" fill="#CD4B2C"/><rect width="1" height="1" x="28" y="10" fill="#CE4D2E"/><rect width="1" height="1" x="29" y="10" fill="#CA4A2C"/><rect width="1" height="1" x="30" y="10" fill="#CD4C2C"/><rect width="1" height="1" x="31" y="10" fill="#CD4C2C"/><rect width="1" height="1" x="32" y="10" fill="#000"/><rect width="1" height="1" x="6" y="11" fill="#000"/><rect width="1" height="1" x="7" y="11" fill="#E25532"/><rect width="1" height="1" x="8" y="11" fill="#E25532"/><rect width="1" height="1" x="9" y="11" fill="#E25532"/><rect width="1" height="1" x="10" y="11" fill="#E25532"/><rect width="1" height="1" x="11" y="11" fill="#E25532"/><rect width="1" height="1" x="12" y="11" fill="#E25532"/><rect width="1" height="1" x="13" y="11" fill="#E25532"/><rect width="1" height="1" x="14" y="11" fill="#E25532"/><rect width="1" height="1" x="15" y="11" fill="#E25532"/><rect width="1" height="1" x="16" y="11" fill="#E25532"/><rect width="1" height="1" x="17" y="11" fill="#E25532"/><rect width="1" height="1" x="18" y="11" fill="#E25532"/><rect width="1" height="1" x="19" y="11" fill="#E25532"/><rect width="1" height="1" x="20" y="11" fill="#E25532"/><rect width="1" height="1" x="21" y="11" fill="#E25532"/><rect width="1" height="1" x="22" y="11" fill="#E25532"/><rect width="1" height="1" x="23" y="11" fill="#E25532"/><rect width="1" height="1" x="24" y="11" fill="#CD4C2D"/><rect width="1" height="1" x="25" y="11" fill="#CC4B2C"/><rect width="1" height="1" x="26" y="11" fill="#CD4C2D"/><rect width="1" height="1" x="27" y="11" fill="#CE4D2E"/><rect width="1" height="1" x="28" y="11" fill="#CC4B2C"/><rect width="1" height="1" x="29" y="11" fill="#CE4D2E"/><rect width="1" height="1" x="30" y="11" fill="#CA4B2C"/><rect width="1" height="1" x="31" y="11" fill="#CD4C2C"/><rect width="1" height="1" x="32" y="11" fill="#D8502F"/><rect width="1" height="1" x="33" y="11" fill="#000"/><rect width="1" height="1" x="6" y="12" fill="#000"/><rect width="1" height="1" x="7" y="12" fill="#E25532"/><rect width="1" height="1" x="8" y="12" fill="#E25532"/><rect width="1" height="1" x="9" y="12" fill="#E25532"/><rect width="1" height="1" x="10" y="12" fill="#E25532"/><rect width="1" height="1" x="11" y="12" fill="#E25532"/><rect width="1" height="1" x="12" y="12" fill="#E25532"/><rect width="1" height="1" x="13" y="12" fill="#E25532"/><rect width="1" height="1" x="14" y="12" fill="#E25532"/><rect width="1" height="1" x="15" y="12" fill="#E25532"/><rect width="1" height="1" x="16" y="12" fill="#E25532"/><rect width="1" height="1" x="17" y="12" fill="#E25532"/><rect width="1" height="1" x="18" y="12" fill="#E25532"/><rect width="1" height="1" x="19" y="12" fill="#E25532"/><rect width="1" height="1" x="20" y="12" fill="#E25532"/><rect width="1" height="1" x="21" y="12" fill="#E25532"/><rect width="1" height="1" x="22" y="12" fill="#E25532"/><rect width="1" height="1" x="23" y="12" fill="#E25532"/><rect width="1" height="1" x="24" y="12" fill="#E25532"/><rect width="1" height="1" x="25" y="12" fill="#CE4D2E"/><rect width="1" height="1" x="26" y="12" fill="#CD4B2C"/><rect width="1" height="1" x="27" y="12" fill="#CE4C2D"/><rect width="1" height="1" x="28" y="12" fill="#CE4C2D"/><rect width="1" height="1" x="29" y="12" fill="#CD4C2C"/><rect width="1" height="1" x="30" y="12" fill="#CF4E2F"/><rect width="1" height="1" x="31" y="12" fill="#CD4C2C"/><rect width="1" height="1" x="32" y="12" fill="#CD4C2C"/><rect width="1" height="1" x="33" y="12" fill="#000"/><rect width="1" height="1" x="5" y="13" fill="#000"/><rect width="1" height="1" x="6" y="13" fill="#E65836"/><rect width="1" height="1" x="7" y="13" fill="#E25532"/><rect width="1" height="1" x="8" y="13" fill="#E25532"/><rect width="1" height="1" x="9" y="13" fill="#E25532"/><rect width="1" height="1" x="10" y="13" fill="#E25532"/><rect width="1" height="1" x="11" y="13" fill="#E25532"/><rect width="1" height="1" x="12" y="13" fill="#E25532"/><rect width="1" height="1" x="13" y="13" fill="#E25532"/><rect width="1" height="1" x="14" y="13" fill="#E25532"/><rect width="1" height="1" x="15" y="13" fill="#E25532"/><rect width="1" height="1" x="16" y="13" fill="#E25532"/><rect width="1" height="1" x="17" y="13" fill="#E25532"/><rect width="1" height="1" x="18" y="13" fill="#E25532"/><rect width="1" height="1" x="19" y="13" fill="#E25532"/><rect width="1" height="1" x="20" y="13" fill="#E25532"/><rect width="1" height="1" x="21" y="13" fill="#E25532"/><rect width="1" height="1" x="22" y="13" fill="#E25532"/><rect width="1" height="1" x="23" y="13" fill="#E25532"/><rect width="1" height="1" x="24" y="13" fill="#E25532"/><rect width="1" height="1" x="25" y="13" fill="#E25532"/><rect width="1" height="1" x="26" y="13" fill="#CE4C2D"/><rect width="1" height="1" x="27" y="13" fill="#CD4C2C"/><rect width="1" height="1" x="28" y="13" fill="#CE4C2D"/><rect width="1" height="1" x="29" y="13" fill="#CD4C2D"/><rect width="1" height="1" x="30" y="13" fill="#CD4C2C"/><rect width="1" height="1" x="31" y="13" fill="#CF4E2E"/><rect width="1" height="1" x="32" y="13" fill="#CD4C2C"/><rect width="1" height="1" x="33" y="13" fill="#CD4C2C"/><rect width="1" height="1" x="34" y="13" fill="#000"/><rect width="1" height="1" x="5" y="14" fill="#000"/><rect width="1" height="1" x="6" y="14" fill="#E25532"/><rect width="1" height="1" x="7" y="14" fill="#E25532"/><rect width="1" height="1" x="8" y="14" fill="#E25532"/><rect width="1" height="1" x="9" y="14" fill="#E25532"/><rect width="1" height="1" x="10" y="14" fill="#E25532"/><rect width="1" height="1" x="11" y="14" fill="#E25532"/><rect width="1" height="1" x="12" y="14" fill="#E25532"/><rect width="1" height="1" x="13" y="14" fill="#E25532"/><rect width="1" height="1" x="14" y="14" fill="#E25532"/><rect width="1" height="1" x="15" y="14" fill="#E25532"/><rect width="1" height="1" x="16" y="14" fill="#E25532"/><rect width="1" height="1" x="17" y="14" fill="#020A0D"/><rect width="1" height="1" x="18" y="14" fill="#000405"/><rect width="1" height="1" x="19" y="14" fill="#000"/><rect width="1" height="1" x="20" y="14" fill="#000"/><rect width="1" height="1" x="21" y="14" fill="#000405"/><rect width="1" height="1" x="22" y="14" fill="#01090C"/><rect width="1" height="1" x="23" y="14" fill="#E25532"/><rect width="1" height="1" x="24" y="14" fill="#E25532"/><rect width="1" height="1" x="25" y="14" fill="#E25532"/><rect width="1" height="1" x="26" y="14" fill="#E25532"/><rect width="1" height="1" x="27" y="14" fill="#CE4C2D"/><rect width="1" height="1" x="28" y="14" fill="#CC4B2C"/><rect width="1" height="1" x="29" y="14" fill="#CD4C2D"/><rect width="1" height="1" x="30" y="14" fill="#CD4C2D"/><rect width="1" height="1" x="31" y="14" fill="#CD4B2C"/><rect width="1" height="1" x="32" y="14" fill="#CD4C2C"/><rect width="1" height="1" x="33" y="14" fill="#CD4C2C"/><rect width="1" height="1" x="34" y="14" fill="#000"/><rect width="1" height="1" x="4" y="15" fill="#000"/><rect width="1" height="1" x="5" y="15" fill="#E25532"/><rect width="1" height="1" x="6" y="15" fill="#E25532"/><rect width="1" height="1" x="7" y="15" fill="#E25532"/><rect width="1" height="1" x="8" y="15" fill="#E25532"/><rect width="1" height="1" x="9" y="15" fill="#E25532"/><rect width="1" height="1" x="10" y="15" fill="#E25532"/><rect width="1" height="1" x="11" y="15" fill="#E25532"/><rect width="1" height="1" x="12" y="15" fill="#E25532"/><rect width="1" height="1" x="13" y="15" fill="#E25532"/><rect width="1" height="1" x="14" y="15" fill="#E25532"/><rect width="1" height="1" x="15" y="15" fill="#E25532"/><rect width="1" height="1" x="16" y="15" fill="#1E2C30"/><rect width="1" height="1" x="17" y="15" fill="#494342"/><rect width="1" height="1" x="18" y="15" fill="#4E4B4B"/><rect width="1" height="1" x="19" y="15" fill="#54504F"/><rect width="1" height="1" x="20" y="15" fill="#54504F"/><rect width="1" height="1" x="21" y="15" fill="#4E4B4B"/><rect width="1" height="1" x="22" y="15" fill="#494342"/><rect width="1" height="1" x="23" y="15" fill="#1E2C30"/><rect width="1" height="1" x="24" y="15" fill="#E25532"/><rect width="1" height="1" x="25" y="15" fill="#E25532"/><rect width="1" height="1" x="26" y="15" fill="#E25532"/><rect width="1" height="1" x="27" y="15" fill="#E25532"/><rect width="1" height="1" x="28" y="15" fill="#C84A2C"/><rect width="1" height="1" x="29" y="15" fill="#C94A2B"/><rect width="1" height="1" x="30" y="15" fill="#C84A2A"/><rect width="1" height="1" x="31" y="15" fill="#C84A2B"/><rect width="1" height="1" x="32" y="15" fill="#C94A2B"/><rect width="1" height="1" x="33" y="15" fill="#C5482A"/><rect width="1" height="1" x="34" y="15" fill="#CD4C2C"/><rect width="1" height="1" x="35" y="15" fill="#000"/><rect width="1" height="1" x="4" y="16" fill="#000"/><rect width="1" height="1" x="5" y="16" fill="#E25532"/><rect width="1" height="1" x="6" y="16" fill="#E25532"/><rect width="1" height="1" x="7" y="16" fill="#E25532"/><rect width="1" height="1" x="8" y="16" fill="#E25532"/><rect width="1" height="1" x="9" y="16" fill="#E05533"/><rect width="1" height="1" x="10" y="16" fill="#E05533"/><rect width="1" height="1" x="11" y="16" fill="#E25532"/><rect width="1" height="1" x="12" y="16" fill="#E25532"/><rect width="1" height="1" x="13" y="16" fill="#E25532"/><rect width="1" height="1" x="14" y="16" fill="#E25532"/><rect width="1" height="1" x="15" y="16" fill="#1E2C2F"/><rect width="1" height="1" x="16" y="16" fill="#433D3C"/><rect width="1" height="1" x="17" y="16" fill="#434444"/><rect width="1" height="1" x="18" y="16" fill="#000"/><rect width="1" height="1" x="19" y="16" fill="#000"/><rect width="1" height="1" x="20" y="16" fill="#000"/><rect width="1" height="1" x="21" y="16" fill="#000"/><rect width="1" height="1" x="22" y="16" fill="#434444"/><rect width="1" height="1" x="23" y="16" fill="#433E3D"/><rect width="1" height="1" x="24" y="16" fill="#1E2C2E"/><rect width="1" height="1" x="25" y="16" fill="#E25532"/><rect width="1" height="1" x="26" y="16" fill="#E25532"/><rect width="1" height="1" x="27" y="16" fill="#E25532"/><rect width="1" height="1" x="28" y="16" fill="#CD4C2C"/><rect width="1" height="1" x="29" y="16" fill="#CD4C2C"/><rect width="1" height="1" x="30" y="16" fill="#CD4C2C"/><rect width="1" height="1" x="31" y="16" fill="#CD4C2C"/><rect width="1" height="1" x="32" y="16" fill="#CD4C2C"/><rect width="1" height="1" x="33" y="16" fill="#CD4C2C"/><rect width="1" height="1" x="34" y="16" fill="#CD4C2C"/><rect width="1" height="1" x="35" y="16" fill="#000"/><rect width="1" height="1" x="4" y="17" fill="#000"/><rect width="1" height="1" x="5" y="17" fill="#E25532"/><rect width="1" height="1" x="6" y="17" fill="#E25532"/><rect width="1" height="1" x="7" y="17" fill="#E25532"/><rect width="1" height="1" x="8" y="17" fill="#E25532"/><rect width="1" height="1" x="9" y="17" fill="#E25532"/><rect width="1" height="1" x="10" y="17" fill="#E25532"/><rect width="1" height="1" x="11" y="17" fill="#E25532"/><rect width="1" height="1" x="12" y="17" fill="#E25532"/><rect width="1" height="1" x="13" y="17" fill="#E25532"/><rect width="1" height="1" x="14" y="17" fill="#000607"/><rect width="1" height="1" x="15" y="17" fill="#484342"/><rect width="1" height="1" x="16" y="17" fill="#434444"/><rect width="1" height="1" x="17" y="17" fill="#000"/><rect width="1" height="1" x="18" y="17" fill="#8D8D8D"/><rect width="1" height="1" x="19" y="17" fill="#C7C7C7"/><rect width="1" height="1" x="20" y="17" fill="#C8C8C8"/><rect width="1" height="1" x="21" y="17" fill="#8D8D8D"/><rect width="1" height="1" x="22" y="17" fill="#000"/><rect width="1" height="1" x="23" y="17" fill="#434444"/><rect width="1" height="1" x="24" y="17" fill="#494342"/><rect width="1" height="1" x="25" y="17" fill="#000607"/><rect width="1" height="1" x="26" y="17" fill="#E25532"/><rect width="1" height="1" x="27" y="17" fill="#E25532"/><rect width="1" height="1" x="28" y="17" fill="#CD4C2C"/><rect width="1" height="1" x="29" y="17" fill="#CD4C2C"/><rect width="1" height="1" x="30" y="17" fill="#CD4C2C"/><rect width="1" height="1" x="31" y="17" fill="#CD4C2C"/><rect width="1" height="1" x="32" y="17" fill="#CD4C2C"/><rect width="1" height="1" x="33" y="17" fill="#CD4C2C"/><rect width="1" height="1" x="34" y="17" fill="#CD4C2C"/><rect width="1" height="1" x="35" y="17" fill="#000"/><rect width="1" height="1" x="4" y="18" fill="#000"/><rect width="1" height="1" x="5" y="18" fill="#1D292C"/><rect width="1" height="1" x="6" y="18" fill="#1C282A"/><rect width="1" height="1" x="7" y="18" fill="#1C292B"/><rect width="1" height="1" x="8" y="18" fill="#1D2A2B"/><rect width="1" height="1" x="9" y="18" fill="#1D2A2B"/><rect width="1" height="1" x="10" y="18" fill="#1D292B"/><rect width="1" height="1" x="11" y="18" fill="#1D292B"/><rect width="1" height="1" x="12" y="18" fill="#1B282A"/><rect width="1" height="1" x="13" y="18" fill="#222B2C"/><rect width="1" height="1" x="14" y="18" fill="#363231"/><rect width="1" height="1" x="15" y="18" fill="#444545"/><rect width="1" height="1" x="16" y="18" fill="#000"/><rect width="1" height="1" x="17" y="18" fill="#8B8B8B"/><rect width="1" height="1" x="18" y="18" fill="#fff"/><rect width="1" height="1" x="19" y="18" fill="#515151"/><rect width="1" height="1" x="20" y="18" fill="#515151"/><rect width="1" height="1" x="21" y="18" fill="#fff"/><rect width="1" height="1" x="22" y="18" fill="#8B8B8B"/><rect width="1" height="1" x="23" y="18" fill="#000"/><rect width="1" height="1" x="24" y="18" fill="#454646"/><rect width="1" height="1" x="25" y="18" fill="#353231"/><rect width="1" height="1" x="26" y="18" fill="#222B2C"/><rect width="1" height="1" x="27" y="18" fill="#1C282B"/><rect width="1" height="1" x="28" y="18" fill="#1D2A2B"/><rect width="1" height="1" x="29" y="18" fill="#1C292A"/><rect width="1" height="1" x="30" y="18" fill="#1C292A"/><rect width="1" height="1" x="31" y="18" fill="#1C292B"/><rect width="1" height="1" x="32" y="18" fill="#1D292B"/><rect width="1" height="1" x="33" y="18" fill="#1B2829"/><rect width="1" height="1" x="34" y="18" fill="#1D2A2C"/><rect width="1" height="1" x="35" y="18" fill="#000"/><rect width="1" height="1" x="4" y="19" fill="#000"/><rect width="1" height="1" x="5" y="19" fill="#434040"/><rect width="1" height="1" x="6" y="19" fill="#403E3C"/><rect width="1" height="1" x="7" y="19" fill="#413F3E"/><rect width="1" height="1" x="8" y="19" fill="#413E3D"/><rect width="1" height="1" x="9" y="19" fill="#413F3E"/><rect width="1" height="1" x="10" y="19" fill="#413F3E"/><rect width="1" height="1" x="11" y="19" fill="#403E3D"/><rect width="1" height="1" x="12" y="19" fill="#413F3E"/><rect width="1" height="1" x="13" y="19" fill="#403F3E"/><rect width="1" height="1" x="14" y="19" fill="#3A3A3A"/><rect width="1" height="1" x="15" y="19" fill="#494949"/><rect width="1" height="1" x="16" y="19" fill="#000"/><rect width="1" height="1" x="17" y="19" fill="#CFCFCF"/><rect width="1" height="1" x="18" y="19" fill="#4F4F4F"/><rect width="1" height="1" x="19" y="19" fill="#C8C8C8"/><rect width="1" height="1" x="20" y="19" fill="#C8C8C8"/><rect width="1" height="1" x="21" y="19" fill="#505050"/><rect width="1" height="1" x="22" y="19" fill="#CECECE"/><rect width="1" height="1" x="23" y="19" fill="#000"/><rect width="1" height="1" x="24" y="19" fill="#494949"/><rect width="1" height="1" x="25" y="19" fill="#3A3A3A"/><rect width="1" height="1" x="26" y="19" fill="#403F3E"/><rect width="1" height="1" x="27" y="19" fill="#413F3D"/><rect width="1" height="1" x="28" y="19" fill="#413F3D"/><rect width="1" height="1" x="29" y="19" fill="#413F3E"/><rect width="1" height="1" x="30" y="19" fill="#413F3E"/><rect width="1" height="1" x="31" y="19" fill="#413F3E"/><rect width="1" height="1" x="32" y="19" fill="#413F3E"/><rect width="1" height="1" x="33" y="19" fill="#3F3D3C"/><rect width="1" height="1" x="34" y="19" fill="#424040"/><rect width="1" height="1" x="35" y="19" fill="#000"/><rect width="1" height="1" x="4" y="20" fill="#000"/><rect width="1" height="1" x="5" y="20" fill="#434343"/><rect width="1" height="1" x="6" y="20" fill="#414141"/><rect width="1" height="1" x="7" y="20" fill="#424242"/><rect width="1" height="1" x="8" y="20" fill="#424242"/><rect width="1" height="1" x="9" y="20" fill="#424242"/><rect width="1" height="1" x="10" y="20" fill="#424242"/><rect width="1" height="1" x="11" y="20" fill="#434343"/><rect width="1" height="1" x="12" y="20" fill="#434343"/><rect width="1" height="1" x="13" y="20" fill="#414141"/><rect width="1" height="1" x="14" y="20" fill="#3A3A3A"/><rect width="1" height="1" x="15" y="20" fill="#494949"/><rect width="1" height="1" x="16" y="20" fill="#000"/><rect width="1" height="1" x="17" y="20" fill="#CECECE"/><rect width="1" height="1" x="18" y="20" fill="#4F4F4F"/><rect width="1" height="1" x="19" y="20" fill="#C8C8C8"/><rect width="1" height="1" x="20" y="20" fill="#C9C9C9"/><rect width="1" height="1" x="21" y="20" fill="#505050"/><rect width="1" height="1" x="22" y="20" fill="#CFCFCF"/><rect width="1" height="1" x="23" y="20" fill="#000"/><rect width="1" height="1" x="24" y="20" fill="#494949"/><rect width="1" height="1" x="25" y="20" fill="#3A3A3A"/><rect width="1" height="1" x="26" y="20" fill="#414141"/><rect width="1" height="1" x="27" y="20" fill="#424242"/><rect width="1" height="1" x="28" y="20" fill="#424242"/><rect width="1" height="1" x="29" y="20" fill="#424242"/><rect width="1" height="1" x="30" y="20" fill="#424242"/><rect width="1" height="1" x="31" y="20" fill="#424242"/><rect width="1" height="1" x="32" y="20" fill="#424242"/><rect width="1" height="1" x="33" y="20" fill="#414141"/><rect width="1" height="1" x="34" y="20" fill="#434343"/><rect width="1" height="1" x="35" y="20" fill="#000"/><rect width="1" height="1" x="4" y="21" fill="#000"/><rect width="1" height="1" x="5" y="21" fill="#181818"/><rect width="1" height="1" x="6" y="21" fill="#151515"/><rect width="1" height="1" x="7" y="21" fill="#161616"/><rect width="1" height="1" x="8" y="21" fill="#171717"/><rect width="1" height="1" x="9" y="21" fill="#171717"/><rect width="1" height="1" x="10" y="21" fill="#171717"/><rect width="1" height="1" x="11" y="21" fill="#171717"/><rect width="1" height="1" x="12" y="21" fill="#161616"/><rect width="1" height="1" x="13" y="21" fill="#1D1D1D"/><rect width="1" height="1" x="14" y="21" fill="#363636"/><rect width="1" height="1" x="15" y="21" fill="#444"/><rect width="1" height="1" x="16" y="21" fill="#000"/><rect width="1" height="1" x="17" y="21" fill="#8B8B8B"/><rect width="1" height="1" x="18" y="21" fill="#fff"/><rect width="1" height="1" x="19" y="21" fill="#505050"/><rect width="1" height="1" x="20" y="21" fill="#505050"/><rect width="1" height="1" x="21" y="21" fill="#fff"/><rect width="1" height="1" x="22" y="21" fill="#8C8C8C"/><rect width="1" height="1" x="23" y="21" fill="#000"/><rect width="1" height="1" x="24" y="21" fill="#444"/><rect width="1" height="1" x="25" y="21" fill="#373737"/><rect width="1" height="1" x="26" y="21" fill="#1D1D1D"/><rect width="1" height="1" x="27" y="21" fill="#161616"/><rect width="1" height="1" x="28" y="21" fill="#161616"/><rect width="1" height="1" x="29" y="21" fill="#161616"/><rect width="1" height="1" x="30" y="21" fill="#161616"/><rect width="1" height="1" x="31" y="21" fill="#171717"/><rect width="1" height="1" x="32" y="21" fill="#171717"/><rect width="1" height="1" x="33" y="21" fill="#151515"/><rect width="1" height="1" x="34" y="21" fill="#181818"/><rect width="1" height="1" x="35" y="21" fill="#000"/><rect width="1" height="1" x="4" y="22" fill="#000"/><rect width="1" height="1" x="5" y="22" fill="#fff"/><rect width="1" height="1" x="6" y="22" fill="#fff"/><rect width="1" height="1" x="7" y="22" fill="#fff"/><rect width="1" height="1" x="8" y="22" fill="#fff"/><rect width="1" height="1" x="9" y="22" fill="#fff"/><rect width="1" height="1" x="10" y="22" fill="#fff"/><rect width="1" height="1" x="11" y="22" fill="#fff"/><rect width="1" height="1" x="12" y="22" fill="#fff"/><rect width="1" height="1" x="13" y="22" fill="#fff"/><rect width="1" height="1" x="14" y="22" fill="#000"/><rect width="1" height="1" x="15" y="22" fill="#4A4A4A"/><rect width="1" height="1" x="16" y="22" fill="#444"/><rect width="1" height="1" x="17" y="22" fill="#000"/><rect width="1" height="1" x="18" y="22" fill="#8D8D8D"/><rect width="1" height="1" x="19" y="22" fill="#C7C7C7"/><rect width="1" height="1" x="20" y="22" fill="#C7C7C7"/><rect width="1" height="1" x="21" y="22" fill="#8E8E8E"/><rect width="1" height="1" x="22" y="22" fill="#000"/><rect width="1" height="1" x="23" y="22" fill="#444"/><rect width="1" height="1" x="24" y="22" fill="#4A4A4A"/><rect width="1" height="1" x="25" y="22" fill="#000"/><rect width="1" height="1" x="26" y="22" fill="#fff"/><rect width="1" height="1" x="27" y="22" fill="#fff"/><rect width="1" height="1" x="28" y="22" fill="#fff"/><rect width="1" height="1" x="29" y="22" fill="#fff"/><rect width="1" height="1" x="30" y="22" fill="#fff"/><rect width="1" height="1" x="31" y="22" fill="#fff"/><rect width="1" height="1" x="32" y="22" fill="#fff"/><rect width="1" height="1" x="33" y="22" fill="#fff"/><rect width="1" height="1" x="34" y="22" fill="#fff"/><rect width="1" height="1" x="35" y="22" fill="#000"/><rect width="1" height="1" x="4" y="23" fill="#000"/><rect width="1" height="1" x="5" y="23" fill="#fff"/><rect width="1" height="1" x="6" y="23" fill="#fff"/><rect width="1" height="1" x="7" y="23" fill="#fff"/><rect width="1" height="1" x="8" y="23" fill="#fff"/><rect width="1" height="1" x="9" y="23" fill="#fff"/><rect width="1" height="1" x="10" y="23" fill="#fff"/><rect width="1" height="1" x="11" y="23" fill="#fff"/><rect width="1" height="1" x="12" y="23" fill="#fff"/><rect width="1" height="1" x="13" y="23" fill="#fff"/><rect width="1" height="1" x="14" y="23" fill="#fff"/><rect width="1" height="1" x="15" y="23" fill="#191919"/><rect width="1" height="1" x="16" y="23" fill="#474747"/><rect width="1" height="1" x="17" y="23" fill="#434343"/><rect width="1" height="1" x="18" y="23" fill="#000"/><rect width="1" height="1" x="19" y="23" fill="#000"/><rect width="1" height="1" x="20" y="23" fill="#000"/><rect width="1" height="1" x="21" y="23" fill="#000"/><rect width="1" height="1" x="22" y="23" fill="#434343"/><rect width="1" height="1" x="23" y="23" fill="#474747"/><rect width="1" height="1" x="24" y="23" fill="#191919"/><rect width="1" height="1" x="25" y="23" fill="#fff"/><rect width="1" height="1" x="26" y="23" fill="#fff"/><rect width="1" height="1" x="27" y="23" fill="#fff"/><rect width="1" height="1" x="28" y="23" fill="#fff"/><rect width="1" height="1" x="29" y="23" fill="#fff"/><rect width="1" height="1" x="30" y="23" fill="#fff"/><rect width="1" height="1" x="31" y="23" fill="#fff"/><rect width="1" height="1" x="32" y="23" fill="#fff"/><rect width="1" height="1" x="33" y="23" fill="#fff"/><rect width="1" height="1" x="34" y="23" fill="#fff"/><rect width="1" height="1" x="35" y="23" fill="#000"/><rect width="1" height="1" x="4" y="24" fill="#000"/><rect width="1" height="1" x="5" y="24" fill="#fff"/><rect width="1" height="1" x="6" y="24" fill="#fff"/><rect width="1" height="1" x="7" y="24" fill="#fff"/><rect width="1" height="1" x="8" y="24" fill="#fff"/><rect width="1" height="1" x="9" y="24" fill="#fff"/><rect width="1" height="1" x="10" y="24" fill="#fff"/><rect width="1" height="1" x="11" y="24" fill="#fff"/><rect width="1" height="1" x="12" y="24" fill="#fff"/><rect width="1" height="1" x="13" y="24" fill="#fff"/><rect width="1" height="1" x="14" y="24" fill="#fff"/><rect width="1" height="1" x="15" y="24" fill="#fff"/><rect width="1" height="1" x="16" y="24" fill="#181818"/><rect width="1" height="1" x="17" y="24" fill="#4D4D4D"/><rect width="1" height="1" x="18" y="24" fill="#4F4F4F"/><rect width="1" height="1" x="19" y="24" fill="#555"/><rect width="1" height="1" x="20" y="24" fill="#555"/><rect width="1" height="1" x="21" y="24" fill="#4F4F4F"/><rect width="1" height="1" x="22" y="24" fill="#4C4C4C"/><rect width="1" height="1" x="23" y="24" fill="#171717"/><rect width="1" height="1" x="24" y="24" fill="#fff"/><rect width="1" height="1" x="25" y="24" fill="#fff"/><rect width="1" height="1" x="26" y="24" fill="#fff"/><rect width="1" height="1" x="27" y="24" fill="#fff"/><rect width="1" height="1" x="28" y="24" fill="#fff"/><rect width="1" height="1" x="29" y="24" fill="#fff"/><rect width="1" height="1" x="30" y="24" fill="#fff"/><rect width="1" height="1" x="31" y="24" fill="#fff"/><rect width="1" height="1" x="32" y="24" fill="#fff"/><rect width="1" height="1" x="33" y="24" fill="#fff"/><rect width="1" height="1" x="34" y="24" fill="#fff"/><rect width="1" height="1" x="35" y="24" fill="#000"/><rect width="1" height="1" x="5" y="25" fill="#000"/><rect width="1" height="1" x="6" y="25" fill="#fff"/><rect width="1" height="1" x="7" y="25" fill="#fff"/><rect width="1" height="1" x="8" y="25" fill="#fff"/><rect width="1" height="1" x="9" y="25" fill="#fff"/><rect width="1" height="1" x="10" y="25" fill="#fff"/><rect width="1" height="1" x="11" y="25" fill="#fff"/><rect width="1" height="1" x="12" y="25" fill="#fff"/><rect width="1" height="1" x="13" y="25" fill="#fff"/><rect width="1" height="1" x="14" y="25" fill="#fff"/><rect width="1" height="1" x="15" y="25" fill="#fff"/><rect width="1" height="1" x="16" y="25" fill="#fff"/><rect width="1" height="1" x="17" y="25" fill="#000"/><rect width="1" height="1" x="18" y="25" fill="#000"/><rect width="1" height="1" x="19" y="25" fill="#000"/><rect width="1" height="1" x="20" y="25" fill="#000"/><rect width="1" height="1" x="21" y="25" fill="#000"/><rect width="1" height="1" x="22" y="25" fill="#000"/><rect width="1" height="1" x="23" y="25" fill="#fff"/><rect width="1" height="1" x="24" y="25" fill="#fff"/><rect width="1" height="1" x="25" y="25" fill="#fff"/><rect width="1" height="1" x="26" y="25" fill="#fff"/><rect width="1" height="1" x="27" y="25" fill="#fff"/><rect width="1" height="1" x="28" y="25" fill="#fff"/><rect width="1" height="1" x="29" y="25" fill="#fff"/><rect width="1" height="1" x="30" y="25" fill="#fff"/><rect width="1" height="1" x="31" y="25" fill="#fff"/><rect width="1" height="1" x="32" y="25" fill="#fff"/><rect width="1" height="1" x="33" y="25" fill="#fff"/><rect width="1" height="1" x="34" y="25" fill="#000"/><rect width="1" height="1" x="5" y="26" fill="#000"/><rect width="1" height="1" x="6" y="26" fill="#fff"/><rect width="1" height="1" x="7" y="26" fill="#fff"/><rect width="1" height="1" x="8" y="26" fill="#fff"/><rect width="1" height="1" x="9" y="26" fill="#fff"/><rect width="1" height="1" x="10" y="26" fill="#fff"/><rect width="1" height="1" x="11" y="26" fill="#fff"/><rect width="1" height="1" x="12" y="26" fill="#fff"/><rect width="1" height="1" x="13" y="26" fill="#fff"/><rect width="1" height="1" x="14" y="26" fill="#fff"/><rect width="1" height="1" x="15" y="26" fill="#fff"/><rect width="1" height="1" x="16" y="26" fill="#fff"/><rect width="1" height="1" x="17" y="26" fill="#fff"/><rect width="1" height="1" x="18" y="26" fill="#fff"/><rect width="1" height="1" x="19" y="26" fill="#fff"/><rect width="1" height="1" x="20" y="26" fill="#fff"/><rect width="1" height="1" x="21" y="26" fill="#fff"/><rect width="1" height="1" x="22" y="26" fill="#fff"/><rect width="1" height="1" x="23" y="26" fill="#fff"/><rect width="1" height="1" x="24" y="26" fill="#fff"/><rect width="1" height="1" x="25" y="26" fill="#fff"/><rect width="1" height="1" x="26" y="26" fill="#fff"/><rect width="1" height="1" x="27" y="26" fill="#fff"/><rect width="1" height="1" x="28" y="26" fill="#fff"/><rect width="1" height="1" x="29" y="26" fill="#fff"/><rect width="1" height="1" x="30" y="26" fill="#fff"/><rect width="1" height="1" x="31" y="26" fill="#fff"/><rect width="1" height="1" x="32" y="26" fill="#fff"/><rect width="1" height="1" x="33" y="26" fill="#fff"/><rect width="1" height="1" x="34" y="26" fill="#000"/><rect width="1" height="1" x="6" y="27" fill="#000"/><rect width="1" height="1" x="7" y="27" fill="#fff"/><rect width="1" height="1" x="8" y="27" fill="#fff"/><rect width="1" height="1" x="9" y="27" fill="#fff"/><rect width="1" height="1" x="10" y="27" fill="#fff"/><rect width="1" height="1" x="11" y="27" fill="#fff"/><rect width="1" height="1" x="12" y="27" fill="#fff"/><rect width="1" height="1" x="13" y="27" fill="#fff"/><rect width="1" height="1" x="14" y="27" fill="#fff"/><rect width="1" height="1" x="15" y="27" fill="#fff"/><rect width="1" height="1" x="16" y="27" fill="#fff"/><rect width="1" height="1" x="17" y="27" fill="#fff"/><rect width="1" height="1" x="18" y="27" fill="#fff"/><rect width="1" height="1" x="19" y="27" fill="#fff"/><rect width="1" height="1" x="20" y="27" fill="#fff"/><rect width="1" height="1" x="21" y="27" fill="#fff"/><rect width="1" height="1" x="22" y="27" fill="#fff"/><rect width="1" height="1" x="23" y="27" fill="#fff"/><rect width="1" height="1" x="24" y="27" fill="#fff"/><rect width="1" height="1" x="25" y="27" fill="#fff"/><rect width="1" height="1" x="26" y="27" fill="#fff"/><rect width="1" height="1" x="27" y="27" fill="#fff"/><rect width="1" height="1" x="28" y="27" fill="#fff"/><rect width="1" height="1" x="29" y="27" fill="#fff"/><rect width="1" height="1" x="30" y="27" fill="#fff"/><rect width="1" height="1" x="31" y="27" fill="#fff"/><rect width="1" height="1" x="32" y="27" fill="#fff"/><rect width="1" height="1" x="33" y="27" fill="#000"/><rect width="1" height="1" x="6" y="28" fill="#000"/><rect width="1" height="1" x="7" y="28" fill="#fff"/><rect width="1" height="1" x="8" y="28" fill="#fff"/><rect width="1" height="1" x="9" y="28" fill="#fff"/><rect width="1" height="1" x="10" y="28" fill="#fff"/><rect width="1" height="1" x="11" y="28" fill="#fff"/><rect width="1" height="1" x="12" y="28" fill="#fff"/><rect width="1" height="1" x="13" y="28" fill="#fff"/><rect width="1" height="1" x="14" y="28" fill="#fff"/><rect width="1" height="1" x="15" y="28" fill="#fff"/><rect width="1" height="1" x="16" y="28" fill="#fff"/><rect width="1" height="1" x="17" y="28" fill="#fff"/><rect width="1" height="1" x="18" y="28" fill="#fff"/><rect width="1" height="1" x="19" y="28" fill="#fff"/><rect width="1" height="1" x="20" y="28" fill="#fff"/><rect width="1" height="1" x="21" y="28" fill="#fff"/><rect width="1" height="1" x="22" y="28" fill="#fff"/><rect width="1" height="1" x="23" y="28" fill="#fff"/><rect width="1" height="1" x="24" y="28" fill="#fff"/><rect width="1" height="1" x="25" y="28" fill="#fff"/><rect width="1" height="1" x="26" y="28" fill="#fff"/><rect width="1" height="1" x="27" y="28" fill="#fff"/><rect width="1" height="1" x="28" y="28" fill="#fff"/><rect width="1" height="1" x="29" y="28" fill="#fff"/><rect width="1" height="1" x="30" y="28" fill="#fff"/><rect width="1" height="1" x="31" y="28" fill="#fff"/><rect width="1" height="1" x="32" y="28" fill="#fff"/><rect width="1" height="1" x="33" y="28" fill="#000"/><rect width="1" height="1" x="7" y="29" fill="#000"/><rect width="1" height="1" x="8" y="29" fill="#fff"/><rect width="1" height="1" x="9" y="29" fill="#fff"/><rect width="1" height="1" x="10" y="29" fill="#fff"/><rect width="1" height="1" x="11" y="29" fill="#fff"/><rect width="1" height="1" x="12" y="29" fill="#fff"/><rect width="1" height="1" x="13" y="29" fill="#fff"/><rect width="1" height="1" x="14" y="29" fill="#fff"/><rect width="1" height="1" x="15" y="29" fill="#fff"/><rect width="1" height="1" x="16" y="29" fill="#fff"/><rect width="1" height="1" x="17" y="29" fill="#fff"/><rect width="1" height="1" x="18" y="29" fill="#fff"/><rect width="1" height="1" x="19" y="29" fill="#fff"/><rect width="1" height="1" x="20" y="29" fill="#fff"/><rect width="1" height="1" x="21" y="29" fill="#fff"/><rect width="1" height="1" x="22" y="29" fill="#fff"/><rect width="1" height="1" x="23" y="29" fill="#fff"/><rect width="1" height="1" x="24" y="29" fill="#fff"/><rect width="1" height="1" x="25" y="29" fill="#fff"/><rect width="1" height="1" x="26" y="29" fill="#fff"/><rect width="1" height="1" x="27" y="29" fill="#fff"/><rect width="1" height="1" x="28" y="29" fill="#fff"/><rect width="1" height="1" x="29" y="29" fill="#fff"/><rect width="1" height="1" x="30" y="29" fill="#fff"/><rect width="1" height="1" x="31" y="29" fill="#fff"/><rect width="1" height="1" x="32" y="29" fill="#000"/><rect width="1" height="1" x="8" y="30" fill="#000"/><rect width="1" height="1" x="9" y="30" fill="#fff"/><rect width="1" height="1" x="10" y="30" fill="#fff"/><rect width="1" height="1" x="11" y="30" fill="#fff"/><rect width="1" height="1" x="12" y="30" fill="#fff"/><rect width="1" height="1" x="13" y="30" fill="#fff"/><rect width="1" height="1" x="14" y="30" fill="#fff"/><rect width="1" height="1" x="15" y="30" fill="#fff"/><rect width="1" height="1" x="16" y="30" fill="#fff"/><rect width="1" height="1" x="17" y="30" fill="#fff"/><rect width="1" height="1" x="18" y="30" fill="#fff"/><rect width="1" height="1" x="19" y="30" fill="#fff"/><rect width="1" height="1" x="20" y="30" fill="#fff"/><rect width="1" height="1" x="21" y="30" fill="#fff"/><rect width="1" height="1" x="22" y="30" fill="#fff"/><rect width="1" height="1" x="23" y="30" fill="#fff"/><rect width="1" height="1" x="24" y="30" fill="#fff"/><rect width="1" height="1" x="25" y="30" fill="#fff"/><rect width="1" height="1" x="26" y="30" fill="#fff"/><rect width="1" height="1" x="27" y="30" fill="#fff"/><rect width="1" height="1" x="28" y="30" fill="#FDFDFD"/><rect width="1" height="1" x="29" y="30" fill="#fff"/><rect width="1" height="1" x="30" y="30" fill="#fff"/><rect width="1" height="1" x="31" y="30" fill="#000"/><rect width="1" height="1" x="9" y="31" fill="#000"/><rect width="1" height="1" x="10" y="31" fill="#fff"/><rect width="1" height="1" x="11" y="31" fill="#fff"/><rect width="1" height="1" x="12" y="31" fill="#fff"/><rect width="1" height="1" x="13" y="31" fill="#fff"/><rect width="1" height="1" x="14" y="31" fill="#fff"/><rect width="1" height="1" x="15" y="31" fill="#fff"/><rect width="1" height="1" x="16" y="31" fill="#fff"/><rect width="1" height="1" x="17" y="31" fill="#fff"/><rect width="1" height="1" x="18" y="31" fill="#fff"/><rect width="1" height="1" x="19" y="31" fill="#fff"/><rect width="1" height="1" x="20" y="31" fill="#fff"/><rect width="1" height="1" x="21" y="31" fill="#fff"/><rect width="1" height="1" x="22" y="31" fill="#fff"/><rect width="1" height="1" x="23" y="31" fill="#fff"/><rect width="1" height="1" x="24" y="31" fill="#fff"/><rect width="1" height="1" x="25" y="31" fill="#fff"/><rect width="1" height="1" x="26" y="31" fill="#fff"/><rect width="1" height="1" x="27" y="31" fill="#fff"/><rect width="1" height="1" x="28" y="31" fill="#fff"/><rect width="1" height="1" x="29" y="31" fill="#fff"/><rect width="1" height="1" x="30" y="31" fill="#000"/><rect width="1" height="1" x="10" y="32" fill="#000"/><rect width="1" height="1" x="11" y="32" fill="#fff"/><rect width="1" height="1" x="12" y="32" fill="#fff"/><rect width="1" height="1" x="13" y="32" fill="#fff"/><rect width="1" height="1" x="14" y="32" fill="#fff"/><rect width="1" height="1" x="15" y="32" fill="#fff"/><rect width="1" height="1" x="16" y="32" fill="#fff"/><rect width="1" height="1" x="17" y="32" fill="#fff"/><rect width="1" height="1" x="18" y="32" fill="#fff"/><rect width="1" height="1" x="19" y="32" fill="#fff"/><rect width="1" height="1" x="20" y="32" fill="#fff"/><rect width="1" height="1" x="21" y="32" fill="#fff"/><rect width="1" height="1" x="22" y="32" fill="#fff"/><rect width="1" height="1" x="23" y="32" fill="#fff"/><rect width="1" height="1" x="24" y="32" fill="#fff"/><rect width="1" height="1" x="25" y="32" fill="#fff"/><rect width="1" height="1" x="26" y="32" fill="#fff"/><rect width="1" height="1" x="27" y="32" fill="#fff"/><rect width="1" height="1" x="28" y="32" fill="#fff"/><rect width="1" height="1" x="29" y="32" fill="#000"/><rect width="1" height="1" x="11" y="33" fill="#000"/><rect width="1" height="1" x="12" y="33" fill="#000"/><rect width="1" height="1" x="13" y="33" fill="#fff"/><rect width="1" height="1" x="14" y="33" fill="#fff"/><rect width="1" height="1" x="15" y="33" fill="#fff"/><rect width="1" height="1" x="16" y="33" fill="#fff"/><rect width="1" height="1" x="17" y="33" fill="#fff"/><rect width="1" height="1" x="18" y="33" fill="#fff"/><rect width="1" height="1" x="19" y="33" fill="#fff"/><rect width="1" height="1" x="20" y="33" fill="#fff"/><rect width="1" height="1" x="21" y="33" fill="#fff"/><rect width="1" height="1" x="22" y="33" fill="#fff"/><rect width="1" height="1" x="23" y="33" fill="#fff"/><rect width="1" height="1" x="24" y="33" fill="#fff"/><rect width="1" height="1" x="25" y="33" fill="#fff"/><rect width="1" height="1" x="26" y="33" fill="#fff"/><rect width="1" height="1" x="27" y="33" fill="#000"/><rect width="1" height="1" x="28" y="33" fill="#000"/><rect width="1" height="1" x="13" y="34" fill="#000"/><rect width="1" height="1" x="14" y="34" fill="#000"/><rect width="1" height="1" x="15" y="34" fill="#fff"/><rect width="1" height="1" x="16" y="34" fill="#fff"/><rect width="1" height="1" x="17" y="34" fill="#fff"/><rect width="1" height="1" x="18" y="34" fill="#fff"/><rect width="1" height="1" x="19" y="34" fill="#fff"/><rect width="1" height="1" x="20" y="34" fill="#fff"/><rect width="1" height="1" x="21" y="34" fill="#fff"/><rect width="1" height="1" x="22" y="34" fill="#fff"/><rect width="1" height="1" x="23" y="34" fill="#fff"/><rect width="1" height="1" x="24" y="34" fill="#fff"/><rect width="1" height="1" x="25" y="34" fill="#000"/><rect width="1" height="1" x="26" y="34" fill="#000"/><rect width="1" height="1" x="15" y="35" fill="#000"/><rect width="1" height="1" x="16" y="35" fill="#000"/><rect width="1" height="1" x="17" y="35" fill="#000"/><rect width="1" height="1" x="18" y="35" fill="#000"/><rect width="1" height="1" x="19" y="35" fill="#000"/><rect width="1" height="1" x="20" y="35" fill="#000"/><rect width="1" height="1" x="21" y="35" fill="#000"/><rect width="1" height="1" x="22" y="35" fill="#000"/><rect width="1" height="1" x="23" y="35" fill="#000"/><rect width="1" height="1" x="24" y="35" fill="#000"/></svg>