<svg xmlns="http://www.w3.org/2000/svg" shape-rendering="crispEdges" viewBox="0 -0.5 16.5 16" width="16" height="16"><path stroke="#000000" d="M5,0h6M3,1h2M11,1h2M2,2h1M4,2h1M13,2h1M1,3h1M5,3h1M14,3h1M1,4h1M6,4h1M14,4h1M0,5h1M7,5h1M15,5h1M0,6h1M15,6h1M0,7h1M15,7h1M0,8h1M10,8h1M15,8h1M0,9h1M11,9h1M15,9h1M0,10h1M12,10h1M15,10h1M1,11h1M13,11h2M1,12h1M14,12h1M2,13h1M13,13h1M3,14h2M11,14h2M5,15h6"/><path stroke="#ffffff" d="M5,1h3M5,2h4M6,3h5M7,4h5M8,5h5M9,6h4M10,7h3M11,8h2M12,9h1"/><path stroke="#f0f0f0" d="M8,1h3M9,2h4M11,3h3M12,4h2M13,5h2M13,6h2M13,7h2M13,8h2M13,9h2M13,10h2"/><path stroke="#424242" d="M3,2h1M3,3h2M4,4h2M5,5h2M6,6h1M9,9h2M10,10h2M11,11h1"/><path stroke="#e25532" d="M2,3h1M2,4h2M1,5h4M1,6h5M1,7h5M1,8h5M1,9h6M1,10h9M2,11h9M2,12h9M3,13h7M5,14h5"/><path stroke="#c8c8c8" d="M7,6h2M6,7h4M7,8h2M7,9h1"/><path stroke="#8d8d8d" d="M6,8h1M9,8h1M8,9h1"/><path stroke="#303030" d="M12,11h1M12,12h2"/><path stroke="#cf4e2e" d="M11,12h1M10,13h3M10,14h1"/></svg>
