<svg xmlns="http://www.w3.org/2000/svg" shape-rendering="crispEdges" viewBox="0 -0.5 16.5 16" width="16" height="16"><path stroke="#000000" d="M5,0h6M3,1h2M7,1h1M11,1h2M2,2h1M7,2h1M13,2h1M1,3h1M7,3h1M14,3h1M1,4h1M7,4h1M14,4h1M0,5h1M7,5h1M15,5h1M0,6h1M15,6h1M0,7h1M15,7h1M0,8h1M15,8h1M0,9h1M15,9h1M0,10h1M7,10h1M15,10h1M1,11h1M7,11h1M14,11h1M1,12h1M7,12h1M14,12h1M2,13h1M7,13h1M13,13h1M3,14h2M7,14h1M11,14h2M5,15h6"/><path stroke="#ffffff" d="M5,1h2M3,2h4M2,3h5M2,4h5M1,5h6M1,6h6M1,7h5M1,8h5M1,9h6M1,10h6M2,11h5M2,12h5M3,13h4M5,14h2"/><path stroke="#303030" d="M8,1h1"/><path stroke="#cf4e2e" d="M9,1h2M9,2h4M11,3h3M12,4h2M13,5h2M13,6h2M13,7h2M13,8h2M13,9h2M13,10h2M12,11h2M11,12h3M10,13h3M10,14h1"/><path stroke="#424242" d="M8,2h1M8,3h1M8,4h1M8,5h1M8,10h1M8,11h1M8,12h1M8,13h1M8,14h1"/><path stroke="#e25532" d="M9,3h2M9,4h3M9,5h4M9,6h4M10,7h3M10,8h3M9,9h4M9,10h4M9,11h3M9,12h2M9,13h1M9,14h1"/><path stroke="#c8c8c8" d="M7,6h2M6,7h4M7,8h2M7,9h1"/><path stroke="#8d8d8d" d="M6,8h1M9,8h1M8,9h1"/></svg>
