<svg xmlns="http://www.w3.org/2000/svg" shape-rendering="crispEdges" viewBox="0 -0.5 16.5 16" width="16" height="16"><path stroke="#000000" d="M5,0h6M3,1h2M11,1h2M2,2h1M13,2h1M1,3h1M14,3h1M1,4h1M13,4h2M0,5h1M12,5h1M15,5h1M0,6h1M11,6h1M15,6h1M0,7h1M10,7h1M15,7h1M0,8h1M15,8h1M0,9h1M15,9h1M0,10h1M7,10h1M15,10h1M1,11h1M6,11h1M14,11h1M1,12h1M5,12h1M14,12h1M2,13h1M4,13h1M13,13h1M3,14h2M11,14h2M5,15h6"/><path stroke="#e25532" d="M5,1h3M3,2h6M2,3h9M2,4h9M1,5h9M1,6h6M1,7h5M1,8h5M1,9h5M1,10h4M2,11h2M2,12h1"/><path stroke="#cf4e2e" d="M8,1h3M9,2h4M11,3h1"/><path stroke="#303030" d="M12,3h2M12,4h1"/><path stroke="#424242" d="M11,4h1M10,5h2M9,6h2M6,9h1M5,10h2M4,11h2M3,12h2M3,13h1"/><path stroke="#f0f0f0" d="M13,5h2M13,6h2M13,7h2M13,8h2M13,9h2M13,10h2M12,11h2M11,12h3M10,13h3M10,14h1"/><path stroke="#c8c8c8" d="M7,6h2M6,7h4M7,8h2M7,9h1"/><path stroke="#ffffff" d="M12,6h1M11,7h2M10,8h3M9,9h4M8,10h5M7,11h5M6,12h5M5,13h5M5,14h5"/><path stroke="#8d8d8d" d="M6,8h1M9,8h1M8,9h1"/></svg>
