<svg xmlns="http://www.w3.org/2000/svg" shape-rendering="crispEdges" viewBox="0 -0.5 32 32" width="32" height="32"><path stroke="#483818" d="M13,7h2M13,8h1M15,8h1M16,9h1M14,10h1M17,10h1M18,11h1M19,12h2M21,13h1M11,14h1M22,14h1M12,15h1M22,15h1M13,16h1M23,16h1M24,17h1M25,18h1M17,20h4M14,22h1M12,25h1M12,26h1M16,27h1"/><path stroke="#d8a830" d="M14,8h1M15,9h1M15,10h2M16,11h2M14,16h1M18,16h1M20,16h1M14,17h5M13,18h7M23,18h1M12,19h2M16,19h6M24,19h1M22,20h1M18,21h4M13,26h2M15,28h2"/><path stroke="#907838" d="M14,9h1M15,11h1M15,12h2M15,13h1M22,19h2M13,20h1M21,20h1M14,21h2M15,27h1"/><path stroke="#000000" d="M8,10h3M8,11h1M11,11h2M9,12h1M13,12h2M10,13h1M13,17h1M12,18h1M21,18h1M11,19h1M14,19h2M25,19h1M11,20h2M14,20h1M16,20h1M23,20h2M12,21h2M22,21h1M11,22h1M20,22h2M11,23h1M15,23h3M19,23h2M12,24h1M16,24h1M18,24h2M13,25h3M19,25h1M15,26h4M13,27h2M17,27h1M13,28h1M18,28h1M14,29h5"/><path stroke="#f8d860" d="M9,11h2M10,12h3M17,12h2M11,13h4M16,13h5M12,14h10M13,15h9M15,16h3M21,16h2M22,17h2M24,18h1M17,21h1M17,22h3M18,23h1"/><path stroke="#e8e8f8" d="M19,16h1M19,17h2M20,18h1M22,18h1M17,25h2"/><path stroke="#b0b0b8" d="M21,17h1M16,25h1M14,28h1M17,28h1"/><path stroke="#f8f0c0" d="M15,20h1M16,21h1M15,22h2"/><path stroke="#685038" d="M12,22h1M17,24h1"/><path stroke="#907860" d="M13,22h1M12,23h3M13,24h3"/></svg>
