<svg xmlns="http://www.w3.org/2000/svg" shape-rendering="crispEdges" viewBox="0 -0.5 32 32" width="32" height="32"><metadata>Generated with pixel-perfect-svg https://github.com/kagof/pixel-perfect-svg</metadata><path stroke="#707890" d="M24,1h1M24,2h1M26,2h1M6,14h2M24,14h1M9,15h2M23,15h1M11,16h2M18,16h2M23,16h1M11,17h1M9,22h1M21,24h1M22,25h1M25,25h1M24,26h2"/><path stroke="#404848" d="M25,1h1M18,2h6M5,3h3M11,3h4M27,3h2M4,4h1M8,4h3M29,4h1M5,5h1M23,5h2M30,5h1M23,6h1M25,6h1M17,7h1M23,7h1M26,7h1M31,7h1M13,8h1M23,8h1M31,8h1M23,9h1M21,11h1M1,12h2M0,13h1M3,13h3M25,13h1M1,14h1M8,14h1M25,14h1M26,15h1M26,16h1M23,19h1M21,20h1M23,20h1M26,20h1M20,21h1M19,22h2M12,23h1M16,23h3M21,23h1M6,24h1M12,24h1M22,24h1M6,25h1M11,25h1M20,25h1M6,26h1M7,27h1M10,27h1M21,27h1M25,27h1M10,28h1M25,28h1M25,29h1"/><path stroke="#a0b0c8" d="M25,2h1M15,3h1M11,4h2M14,5h3M11,6h3M18,6h1M25,7h1M24,9h1M25,10h1M25,11h2M29,11h1M22,12h1M26,12h3M22,13h3M21,14h1M23,14h1M8,15h1M25,15h1M10,16h1M21,16h1M12,17h1M19,18h1M21,18h2M20,19h1M22,19h1M20,20h1M22,20h1M18,21h2M23,21h1M12,22h1M16,22h3M9,23h1M22,23h2M7,24h1M10,24h2M7,25h1M9,25h1M24,25h1M7,26h2M23,26h1M8,27h2M23,27h2M8,28h2M23,28h2"/><path stroke="#c8d0e0" d="M16,3h1M7,4h1M13,4h5M13,5h1M17,5h1M10,6h1M26,6h1M20,7h1M27,7h1M22,8h1M26,8h3M22,14h1M7,15h1M8,16h2M7,17h4M18,17h1M22,17h1M10,18h1M16,18h3M18,19h2M19,20h1M22,21h1M10,22h2M23,22h1M10,23h2M24,23h1M21,25h1M23,25h1M9,26h1M21,26h2M22,27h1"/><path stroke="#e8e8f8" d="M17,3h10M5,4h2M18,4h11M8,5h5M18,5h5M25,5h3M19,6h4M24,6h1M27,6h1M21,7h2M24,7h1M24,8h2M25,9h1M1,13h2M2,14h4M4,15h3M20,15h3M24,15h1M6,16h2M22,16h1M24,16h2M20,17h2M24,17h2M11,18h2M11,19h2M10,20h3M10,21h3M21,21h1M21,22h2M8,23h1M8,24h2M23,24h2M8,25h1"/><path stroke="#101010" d="M6,5h1M7,6h1M8,7h2M15,7h2M10,8h3M18,8h1M19,9h1M20,10h1M24,10h1M30,10h1M24,11h1M30,11h1M11,12h2M21,12h1M25,12h1M29,12h1M11,13h1M21,13h1M26,13h4M11,14h1M19,14h2M2,15h2M12,15h1M19,15h1M4,16h1M13,16h1M20,16h1M13,17h1M19,17h1M26,17h1M6,18h1M13,18h1M20,18h1M26,18h1M13,19h1M21,19h1M26,19h1M13,20h1M24,20h1M9,21h1M13,21h1M16,21h1M24,21h2M7,22h2M13,22h1M24,22h2M7,23h1M14,23h1M25,23h1M14,24h1M25,24h1M10,25h1M15,25h1M10,26h1M13,26h1M15,26h1M20,26h1M13,27h2M17,27h1M7,28h1M16,28h2M22,28h1M7,29h1M22,29h1M7,30h1M9,30h1M23,30h1M25,30h1M7,31h2M24,31h2"/><path stroke="#788090" d="M7,5h1M9,6h1M14,6h4M11,7h4M18,7h2M19,8h3M20,9h3M21,10h3M22,11h2M27,11h1M23,12h1M5,16h1M6,17h1M7,18h3M9,19h2M9,20h1M25,20h1"/><path stroke="#b09818" d="M28,5h2M28,6h1M28,7h2M12,14h1M14,14h1M15,15h1M14,16h2M15,17h1M15,19h1M14,21h1M14,22h1M15,23h1M15,24h2M14,26h1M16,27h1M8,29h1M24,29h1M8,30h1M24,30h1"/><path stroke="#586070" d="M8,6h1M10,7h1M29,8h2M26,9h5M26,10h1M29,10h1M24,12h1M5,17h1M23,17h1M23,18h3M7,19h2M24,19h2M8,20h1"/><path stroke="#e8d018" d="M29,6h2M30,7h1M12,13h1M13,14h1M15,14h1M13,15h1M16,16h2M14,17h1M14,18h1M14,19h1M14,20h1M16,20h2"/><path stroke="#686018" d="M15,10h1M15,11h1M13,12h1M15,12h3M13,13h5M16,14h1M16,15h2M16,17h2M15,18h1M16,19h2M15,20h1M18,20h1M15,21h1M17,21h1M15,22h1M13,23h1M17,24h1M14,25h1M16,25h1M16,26h1M9,29h1M23,29h1"/><path stroke="#38b058" d="M27,10h1M14,15h1"/><path stroke="#f04040" d="M28,10h1"/><path stroke="#308040" d="M28,11h1"/></svg>
