<svg xmlns="http://www.w3.org/2000/svg" shape-rendering="crispEdges" viewBox="0 -0.5 32 32" width="32" height="32"><path stroke="#304058" d="M2,3h4M1,4h1M6,4h3M2,5h3M9,5h2M5,6h2M11,6h1M7,7h1M12,7h1M9,8h2M13,8h1M11,9h3M4,10h1M6,10h1M14,10h1M4,11h1M15,11h1M5,12h1M16,12h1M5,13h1M6,14h1M5,15h3M3,16h2M8,16h1M2,17h1M8,17h2M16,17h1M2,18h1M7,18h1M22,18h1M1,19h1M6,19h1M12,19h1M22,19h1M1,20h1M6,20h1M12,20h3M17,20h1M21,20h1M1,21h1M7,21h1M11,21h1M13,21h1M18,21h1M20,21h1M1,22h1M8,22h4M19,22h1M2,23h1M17,23h1M3,24h2M5,25h2"/><path stroke="#30b0c0" d="M2,4h4M6,5h2M9,6h1M8,7h1M12,8h1M18,10h1M21,10h1M19,11h1M22,11h1M5,16h2M4,17h1M3,18h1M6,18h1M2,19h1M5,19h1M2,20h1M5,20h1M2,21h1M5,21h2M6,22h2M4,23h1M8,23h2M6,24h2"/><path stroke="#388088" d="M5,5h1M7,6h2M9,7h2M11,8h1M20,12h3M7,16h1M3,17h1M5,17h3M4,18h2M3,19h2M3,20h2M3,21h2M3,22h3M5,23h3M10,23h1M8,24h1"/><path stroke="#a0e0f8" d="M8,5h1M10,6h1M11,7h1M9,9h2M11,10h2M12,11h1M19,19h1M21,19h1M18,20h1M20,20h1M2,22h1M3,23h1M5,24h1"/><path stroke="#000000" d="M20,7h2M4,8h5M20,8h1M22,8h1M4,9h1M17,9h4M22,9h1M5,10h1M13,10h1M17,10h1M20,10h1M23,10h1M13,11h1M16,11h1M18,11h1M21,11h1M23,11h1M14,12h1M19,12h1M23,12h1M14,13h1M21,13h2M14,14h1M15,15h1M15,16h1M10,17h1M11,18h1M13,22h1M18,22h1M11,23h1M9,24h2M7,25h2"/><path stroke="#78c8f8" d="M21,8h1M5,9h4M21,9h1M10,10h1M19,10h1M22,10h1M5,11h5M17,11h1M20,11h1M9,12h2M12,12h2M17,12h2M6,13h2M11,13h1M13,13h1M16,13h4M13,14h1M16,14h4M8,15h1M14,15h1M16,15h6M9,16h1M17,16h5M17,17h3M19,21h1"/><path stroke="#68a0e8" d="M7,10h3M10,11h2M14,11h1M6,12h3M11,12h1M15,12h1M8,13h3M12,13h1M7,14h6M9,15h5M10,16h5M16,16h1M11,17h5M21,17h1M12,18h7M13,19h5M15,20h2M14,21h4M14,22h4M15,23h2"/><path stroke="#306898" d="M15,13h1M15,14h1M22,17h1M12,21h1M12,22h1M14,23h1"/><path stroke="#e8e8f8" d="M20,13h1M20,14h1"/><path stroke="#383828" d="M23,13h1M22,14h1M24,14h1M23,15h2M22,16h1M12,23h2M12,24h1M14,24h1M16,24h1M13,25h3"/><path stroke="#a02030" d="M21,14h1"/><path stroke="#c8b848" d="M23,14h1"/><path stroke="#908018" d="M22,15h1M13,24h1M15,24h1"/><path stroke="#d8f8f8" d="M20,17h1M19,18h3M18,19h1M20,19h1M19,20h1"/></svg>
