<svg xmlns="http://www.w3.org/2000/svg" shape-rendering="crispEdges" viewBox="0 -0.5 32 32" width="32" height="32"><path stroke="#304058" d="M3,2h4M2,3h1M7,3h3M3,4h3M10,4h2M6,5h2M12,5h1M8,6h1M13,6h1M9,7h1M13,7h1M10,8h1M14,8h1M10,9h1M14,9h1M10,10h1M14,10h1M9,11h1M13,11h1M6,12h3M13,12h1M16,12h1M4,13h2M12,13h1M15,13h1M3,14h1M11,14h1M15,14h1M2,15h1M9,15h2M14,15h1M1,16h1M7,16h2M13,16h1M1,17h1M6,17h1M13,17h1M1,18h1M6,18h1M12,18h1M22,18h1M1,19h1M7,19h1M12,19h1M22,19h1M2,20h1M8,20h1M11,20h1M14,20h1M18,20h1M21,20h1M2,21h1M9,21h3M14,21h1M18,21h1M20,21h1M3,22h1M11,22h2M19,22h1M4,23h2M19,23h1M6,24h3M19,24h1M19,25h1M13,26h1M13,27h1M15,27h1M17,27h1M14,28h2M17,28h1M17,30h1"/><path stroke="#30b0c0" d="M3,3h4M7,4h2M10,5h1M9,6h1M10,7h1M12,7h1M11,8h1M13,8h1M11,9h1M13,9h1M11,10h1M13,10h1M18,10h1M21,10h1M10,11h2M19,11h1M22,11h1M9,12h2M6,13h3M4,14h2M3,15h1M7,15h2M2,16h1M6,16h1M2,17h1M5,17h1M2,18h1M5,18h1M2,19h1M6,19h1M3,20h1M6,20h2M7,21h2M5,22h1M9,22h1M7,23h2"/><path stroke="#388088" d="M6,4h1M8,5h2M10,6h2M11,7h1M12,8h1M12,9h1M12,10h1M12,11h1M11,12h2M20,12h3M9,13h3M6,14h5M4,15h3M3,16h3M3,17h2M3,18h2M3,19h3M4,20h2M4,21h3M6,22h3M10,22h1"/><path stroke="#a0e0f8" d="M9,4h1M11,5h1M12,6h1M17,19h1M19,19h1M21,19h1M17,20h1M20,20h1M3,21h1M17,21h1M4,22h1M18,22h1M6,23h1M18,23h1M18,24h1M18,25h1M18,26h1"/><path stroke="#000000" d="M20,7h2M20,8h1M22,8h1M17,9h4M22,9h1M17,10h1M20,10h1M23,10h1M16,11h1M18,11h1M21,11h1M23,11h1M19,12h1M23,12h1M21,13h2M13,22h1M9,23h3M13,23h1M19,26h1M19,27h1M19,28h1M15,29h1M17,29h1M19,29h1M16,30h1M18,30h2"/><path stroke="#78c8f8" d="M21,8h1M21,9h1M19,10h1M22,10h1M17,11h1M20,11h1M17,12h2M16,13h4M16,14h4M15,15h7M14,16h2M17,16h5M14,17h3M18,17h2M13,18h4M13,19h2M16,19h1M13,20h1M16,20h1M16,21h1M16,22h2M15,23h3M15,24h3M15,25h3M14,26h1M16,26h1M14,27h1M16,27h1M18,27h1M16,28h1M18,28h1M16,29h1M18,29h1"/><path stroke="#e8e8f8" d="M20,13h1M20,14h1"/><path stroke="#383828" d="M23,13h1M22,14h1M24,14h1M23,15h2M22,16h1M12,23h1M12,24h1M13,25h1"/><path stroke="#a02030" d="M21,14h1"/><path stroke="#c8b848" d="M23,14h1"/><path stroke="#908018" d="M22,15h1M13,24h1"/><path stroke="#306898" d="M16,16h1M17,17h1M22,17h1M17,18h1M15,19h1M18,19h1M12,20h1M12,21h1"/><path stroke="#d8f8f8" d="M20,17h1M19,18h3M20,19h1M19,20h1"/><path stroke="#68a0e8" d="M21,17h1M18,18h1M15,20h1M13,21h1M15,21h1M19,21h1M14,22h2M14,23h1M14,24h1M14,25h1M15,26h1M17,26h1"/></svg>
