<svg xmlns="http://www.w3.org/2000/svg" shape-rendering="crispEdges" viewBox="0 -0.5 32 32" width="32" height="32"><path stroke="#303858" d="M18,8h3M16,9h2M21,9h2M18,10h1M23,10h2M15,11h1M25,11h1M15,12h1M25,12h1M25,13h1M22,14h1M25,14h1M22,15h1M26,15h1M26,16h1M26,17h1M24,18h1M26,18h1M24,19h2M11,22h1M12,23h1M7,26h1"/><path stroke="#000000" d="M15,9h1M14,10h1M14,11h1M10,12h3M14,12h1M9,13h1M13,13h1M8,14h1M8,15h1M11,15h1M10,16h2M21,16h1M9,17h1M12,17h1M15,17h1M10,18h2M16,18h1M16,19h3M5,20h1M17,20h1M19,20h3M5,21h1M17,21h1M5,22h1M3,23h4M13,23h1M2,24h1M6,24h1M14,24h2M17,24h1M20,24h1M3,25h1M7,25h1M15,25h2M20,25h1M4,26h2M8,26h1M14,26h1M19,26h1M6,27h2M13,27h1M17,27h2M7,28h1M14,28h3M8,29h6"/><path stroke="#6060a8" d="M18,9h2M17,10h1M16,11h1M24,11h1M16,12h2M14,13h5M21,13h1M24,13h1M17,14h2M24,14h1M18,15h1M21,15h1M14,16h1M18,16h1M23,16h1M14,17h1M18,17h8M15,18h1M21,18h3M25,18h1M12,20h1M16,20h1M12,21h1M12,22h3M10,23h2M14,23h3M5,24h1M10,24h1M13,24h1M6,25h1M10,25h1M14,25h1M6,26h1M9,26h2M13,26h1M9,27h4M8,28h1M10,28h1M13,28h1"/><path stroke="#9088e8" d="M20,9h1M15,10h2M19,10h4M17,11h7M18,12h7M19,13h2M22,13h2M19,14h3M23,14h1M20,15h1M23,15h3M22,16h1M24,16h2M14,18h1M13,19h3M13,20h3M13,21h4M15,22h2M3,24h2M11,24h2M4,25h2M11,25h3M11,26h2"/><path stroke="#505050" d="M10,10h2M9,11h1M12,11h1M9,12h1M9,14h1M12,14h1M14,14h1M10,15h1M14,15h1M15,16h1M9,18h1M12,18h1M10,19h2M23,19h1M22,20h2M21,21h1M18,22h1M21,22h1M17,23h2M21,23h1M8,27h1"/><path stroke="#888888" d="M10,11h1M9,16h1M12,16h1M10,17h2"/><path stroke="#b8b8b8" d="M11,11h1M12,15h1M19,15h1M12,19h1M11,20h1M11,21h1M10,22h1M9,23h1M9,24h1M16,24h1M9,25h1M9,28h1M11,28h1"/><path stroke="#805008" d="M10,13h2M8,16h1M13,16h1M20,16h1M7,17h1M13,17h1M7,18h1M7,19h2M6,20h1M8,20h3M6,21h2M9,21h2M6,22h2M7,23h1"/><path stroke="#b07018" d="M12,13h1M13,14h1M13,15h1M8,17h1M8,18h1M9,19h1"/><path stroke="#e8e8f8" d="M10,14h2M9,15h1M19,16h1M13,18h1M17,22h1M12,28h1"/><path stroke="#988850" d="M15,14h1M16,17h1M17,18h1M18,20h1M19,21h2M18,24h2M17,25h1M15,26h2M14,27h3"/><path stroke="#f0c850" d="M16,14h1M15,15h3M16,16h2M17,17h1M18,18h3M19,19h4M18,21h1M19,22h2M19,23h2M18,25h2M17,26h2"/><path stroke="#482808" d="M7,16h1M6,17h1M6,18h1M6,19h1M7,20h1M8,21h1M8,22h2M8,23h1M7,24h2M8,25h1"/></svg>
