<svg xmlns="http://www.w3.org/2000/svg" shape-rendering="crispEdges" viewBox="0 -0.5 32 32" width="32" height="32"><path stroke="#681000" d="M18,6h2M18,7h1M20,7h1M15,13h6M15,14h1M17,15h1M16,16h1M16,17h2M19,17h1M22,17h1M18,18h1M20,18h3M17,20h1M11,22h4M11,23h1M12,24h2M14,25h2"/><path stroke="#e83028" d="M19,7h1M19,11h1M20,12h1M21,13h1M16,14h3M21,14h1M22,15h1M17,16h1M22,16h2M21,17h1M16,19h2M16,20h1"/><path stroke="#705840" d="M16,8h1M19,8h3M14,9h2M22,9h1M13,10h1M23,10h1M12,11h1M23,11h1M11,12h1M24,12h1M10,13h1M24,13h1M9,17h1M15,17h1M8,18h1M14,18h1M7,19h1M12,19h2M20,19h1M10,20h2M21,20h1M9,21h1M16,21h1M20,21h2M17,22h1M19,23h1"/><path stroke="#000000" d="M17,8h2M17,9h1M19,9h1M18,10h1M20,10h1M18,11h1M21,11h1M19,12h1M22,12h1M23,13h1M9,14h1M20,14h1M24,14h1M8,15h1M21,15h1M25,15h1M7,16h1M25,16h1M6,17h1M23,17h2M5,18h1M16,18h2M5,19h1M15,19h1M18,19h1M5,20h2M14,20h1M6,21h3M14,21h1M17,21h2M15,22h1M19,22h2M15,23h2M21,23h1M15,24h1M17,24h1M19,24h3M16,25h1M18,25h2M16,28h2M19,28h1M21,28h1M18,29h2"/><path stroke="#f0e098" d="M16,9h1M20,9h2M14,10h4M21,10h2M13,11h5M22,11h1M12,12h7M11,13h4M10,14h2M9,15h1M8,16h1M7,17h1"/><path stroke="#f86058" d="M18,9h1M19,10h1M20,11h1M21,12h1M22,13h1M22,14h2M23,15h2M15,20h1M15,21h1"/><path stroke="#d0b858" d="M23,12h1M12,14h3M10,15h7M9,16h7M8,17h1M10,17h5M6,18h2M9,18h1M11,18h3M6,19h1M8,19h1M10,19h2M19,19h1M7,20h1M9,20h1M18,20h3M19,21h1M18,22h1M17,23h1"/><path stroke="#f8d050" d="M19,14h1M19,15h1M20,16h1"/><path stroke="#a81818" d="M18,15h1M18,16h2M24,16h1M18,17h1M20,17h1M12,23h3M14,24h1M18,26h1"/><path stroke="#2060b8" d="M20,15h1M21,16h1"/><path stroke="#b08050" d="M10,18h1M19,18h1M9,19h1M8,20h1M16,22h1M18,23h1"/><path stroke="#b8a8a0" d="M20,23h1"/><path stroke="#f0e8e0" d="M16,24h1M18,24h1"/><path stroke="#e0a810" d="M17,25h1M17,26h1M19,26h1M16,27h5M18,28h1"/><path stroke="#604800" d="M20,25h1M16,26h1M20,26h1M15,27h1M21,27h1M15,28h1M20,28h1"/></svg>
