<svg xmlns="http://www.w3.org/2000/svg" shape-rendering="crispEdges" viewBox="0 -0.5 32 32" width="32" height="32"><path stroke="#406030" d="M12,15h4M11,16h1M16,16h1M18,16h3M21,17h2M23,18h1M8,19h1M24,19h1M7,20h1M24,20h1M7,21h1M25,21h1M7,22h1M25,22h1M8,23h1M25,23h1M16,24h1M25,24h1M17,25h1M23,25h1M18,26h2M19,27h2M14,28h3"/><path stroke="#000000" d="M9,16h2M8,17h1M17,17h2M8,18h1M16,18h1M14,22h1M13,23h1M9,24h4M10,25h1M24,25h1M10,26h1M20,26h3M9,27h1M14,27h2M9,28h1M12,28h2M17,28h1M20,28h1M10,29h2M18,29h2"/><path stroke="#88e020" d="M12,16h3M11,17h3M10,19h2M10,20h2"/><path stroke="#60a810" d="M15,16h1M9,17h2M14,17h3M9,18h6M9,19h1M12,19h2M8,20h2M12,20h2M8,21h6M8,22h6M9,23h4"/><path stroke="#409850" d="M19,17h1M17,18h1M21,18h2M21,19h2M15,20h1M15,21h2M23,21h1M15,22h1M16,23h1M22,24h1M24,24h1M11,25h1M11,26h2M16,26h2M10,27h4M16,27h3M10,28h2M18,28h2"/><path stroke="#68d078" d="M20,17h1M18,18h3M15,19h6M23,19h1M16,20h8M17,21h6M24,21h1M16,22h9M14,23h2M17,23h3M22,23h3M13,24h3M17,24h3M23,24h1M12,25h5M18,25h5M13,26h3"/><path stroke="#404040" d="M15,18h1M14,19h1M14,20h1M14,21h1"/><path stroke="#e8e8f8" d="M20,23h1"/><path stroke="#681018" d="M21,23h1"/><path stroke="#c8c8c8" d="M20,24h1"/><path stroke="#b83018" d="M21,24h1"/></svg>
