<svg xmlns="http://www.w3.org/2000/svg" shape-rendering="crispEdges" viewBox="0 -0.5 32 32" width="32" height="32"><path stroke="#000000" d="M10,10h2M9,11h1M4,13h3M23,13h2M3,14h1M7,14h2M22,14h3M2,15h1M9,15h2M20,15h2M2,16h1M12,16h1M19,16h1M2,17h1M11,17h2M2,18h1M3,19h1M4,20h1M5,21h1M6,22h2M16,22h1M8,23h3M15,23h1M6,24h1M11,24h1M13,24h1M6,25h1M11,25h1M7,26h2"/><path stroke="#402858" d="M22,10h2M21,11h3M20,12h1M15,13h5M14,14h1M19,14h2M13,15h1M21,16h1M21,17h1M12,18h1M20,18h1M22,18h1M12,19h1M22,19h1M13,20h1M21,20h1M12,21h1M14,21h2M19,21h2M11,22h1M17,22h2M11,23h1M14,24h1"/><path stroke="#b8c0e0" d="M10,11h2M10,12h2M11,13h2M5,15h1M4,16h1M6,16h1M5,17h1M4,19h3M10,20h3M9,21h3M8,22h3M7,24h2M7,25h3"/><path stroke="#606060" d="M12,11h1M9,12h1M12,12h1M9,13h1M13,13h1M4,14h1M9,14h1M13,14h1M3,15h1M10,16h2M7,23h1M10,24h1M10,25h1M9,26h1"/><path stroke="#909090" d="M10,13h1M10,14h3M11,15h2M6,17h3M6,18h1M9,18h2M7,19h1M11,19h1M8,20h2M9,24h1"/><path stroke="#e8e8f8" d="M5,14h2M4,15h1M6,15h3M3,16h1M5,16h1M7,16h3M3,17h2M9,17h2M3,18h3M7,18h2M11,18h1M8,19h3M17,19h1M5,20h3M20,20h1M6,21h3"/><path stroke="#a068e0" d="M15,14h4M14,15h6M14,16h5M20,16h1M13,17h3M18,17h3M13,18h2M19,18h1M13,19h2M19,19h1M14,20h1M19,20h1M13,21h1M18,21h1M12,22h2"/><path stroke="#7050c8" d="M13,16h1M14,22h1M12,23h3"/><path stroke="#c02840" d="M16,17h2M15,18h1M18,18h1M15,19h1M18,19h1M15,20h1M18,20h1M16,21h2"/><path stroke="#f87088" d="M16,18h2M16,19h1M16,20h2"/><path stroke="#68c8f8" d="M21,18h1M21,19h1M15,22h1"/><path stroke="#5090e0" d="M20,19h1M12,25h1M12,26h1"/><path stroke="#304090" d="M12,24h1M13,25h1M11,26h1M13,26h1M12,27h1"/></svg>
