<svg xmlns="http://www.w3.org/2000/svg" shape-rendering="crispEdges" viewBox="0 -0.5 32 32" width="32" height="32"><path stroke="#000000" d="M8,10h3M6,11h3M11,11h1M5,12h1M9,12h1M4,13h1M10,13h1M23,13h2M4,14h1M22,14h3M4,15h1M11,15h1M20,15h2M4,16h1M12,16h1M19,16h1M4,17h1M12,17h1M4,18h1M5,19h1M5,20h1M6,21h1M7,22h1M16,22h1M8,23h3M15,23h1M6,24h1M11,24h1M13,24h1M6,25h1M11,25h1M7,26h2"/><path stroke="#402858" d="M22,10h2M21,11h3M20,12h1M15,13h5M14,14h1M19,14h2M13,15h1M21,16h1M21,17h1M12,18h1M20,18h1M22,18h1M12,19h1M22,19h1M13,20h1M21,20h1M12,21h1M14,21h2M19,21h2M11,22h1M17,22h2M11,23h1M14,24h1"/><path stroke="#b8c0e0" d="M9,11h2M10,12h2M7,13h1M11,13h1M6,14h1M8,14h1M5,18h3M11,19h1M10,20h3M8,21h4M8,22h3M7,24h2M7,25h3"/><path stroke="#606060" d="M6,12h1M12,12h1M5,13h1M12,13h1M10,14h2M13,14h1M11,16h1M7,23h1M10,24h1M10,25h1M9,26h1"/><path stroke="#e8e8f8" d="M7,12h2M6,13h1M8,13h2M5,14h1M7,14h1M9,14h1M5,15h2M9,15h2M5,16h2M8,16h1M10,16h1M5,17h2M8,17h2M11,17h1M9,18h2M6,19h3M17,19h1M6,20h4M20,20h1M7,21h1"/><path stroke="#909090" d="M12,14h1M7,15h2M12,15h1M7,16h1M9,16h1M7,17h1M10,17h1M8,18h1M11,18h1M9,19h2M9,24h1"/><path stroke="#a068e0" d="M15,14h4M14,15h6M14,16h5M20,16h1M13,17h3M18,17h3M13,18h2M19,18h1M13,19h2M19,19h1M14,20h1M19,20h1M13,21h1M18,21h1M12,22h2"/><path stroke="#7050c8" d="M13,16h1M14,22h1M12,23h3"/><path stroke="#c02840" d="M16,17h2M15,18h1M18,18h1M15,19h1M18,19h1M15,20h1M18,20h1M16,21h2"/><path stroke="#f87088" d="M16,18h2M16,19h1M16,20h2"/><path stroke="#68c8f8" d="M21,18h1M21,19h1M15,22h1"/><path stroke="#5090e0" d="M20,19h1M12,25h1M12,26h1"/><path stroke="#304090" d="M12,24h1M13,25h1M11,26h1M13,26h1M12,27h1"/></svg>
