<svg xmlns="http://www.w3.org/2000/svg" shape-rendering="crispEdges" viewBox="0 -0.5 32 32" width="32" height="32"><path stroke="#204020" d="M13,11h2M12,12h1M14,12h1M11,13h1M15,13h1M11,14h1M15,14h1M16,15h1M17,16h1M22,20h1M10,21h1M22,21h1M10,22h1M22,22h1M21,23h1M14,25h4M17,26h1M17,27h1M16,28h1M15,29h2"/><path stroke="#488850" d="M13,12h1M13,13h1M13,14h1M12,15h1M14,15h1M12,16h1M18,16h1M21,18h1M18,19h1M22,19h1M15,26h1M14,28h1"/><path stroke="#78b848" d="M12,13h1M14,13h1M12,14h1M14,14h1M18,18h1M15,27h2M15,28h1"/><path stroke="#0868b0" d="M19,13h1M19,17h1M19,18h1M18,23h1M10,24h2M19,24h1M10,25h1M13,25h1M11,26h1"/><path stroke="#50b0d0" d="M19,14h1M19,15h1M19,16h1"/><path stroke="#000000" d="M20,14h1M10,15h1M20,15h1M10,16h1M20,16h1M9,17h1M20,17h1M9,18h1M9,19h1M9,20h1M11,23h1M12,24h2M20,24h1M18,25h2M12,26h1M12,27h3"/><path stroke="#c0e070" d="M11,15h1M13,15h1M15,15h1M17,19h1M21,19h1M10,20h1M11,21h2M21,21h1M11,22h4M20,22h2M12,23h3M20,23h1M14,24h2M13,26h2M16,26h1"/><path stroke="#f8f8c0" d="M11,16h1M13,16h4M10,17h9M10,18h8M20,18h1M10,19h7M19,19h2M11,20h11M13,21h3M19,21h2"/><path stroke="#202828" d="M16,21h3M15,22h2M19,22h1M15,23h2M19,23h1M16,24h1"/><path stroke="#e8e8f8" d="M17,22h2M17,23h1M11,25h2"/><path stroke="#909898" d="M17,24h1"/><path stroke="#18a8e0" d="M18,24h1"/></svg>
