<svg xmlns="http://www.w3.org/2000/svg" shape-rendering="crispEdges" viewBox="0 -0.5 32 32" width="32" height="32"><path stroke="#604020" d="M19,14h4M18,15h1M23,15h1M17,16h1M24,16h1M17,17h1M16,18h1M25,18h1M16,19h1M25,19h1M16,20h1M26,20h1M15,21h1M11,22h1M15,22h1M20,22h1M12,23h3M21,23h1M24,23h1M18,24h1M22,24h1M21,26h1M15,27h1M20,27h1M18,28h2"/><path stroke="#e02828" d="M9,15h1M9,16h2M10,17h1M8,18h4M8,19h1M11,19h1M9,20h1M11,20h1M9,21h2"/><path stroke="#f88838" d="M19,15h4M18,16h6M18,17h6M17,18h6M24,18h1M17,19h5M24,19h1M17,20h5M23,20h3M16,21h6M23,21h3M16,22h3M21,22h3M15,23h3M19,23h1M13,24h4M19,24h2M15,25h3M16,26h2"/><path stroke="#f0d070" d="M9,17h1M9,19h2M10,20h1"/><path stroke="#b85820" d="M24,17h1M23,18h1M23,19h1M10,22h1M19,22h1M24,22h1M10,23h2M18,23h1M20,23h1M11,24h2M17,24h1M21,24h1M11,25h4M18,25h1M13,26h3M18,26h2M16,27h4M16,28h2"/><path stroke="#e8e8f8" d="M22,19h1"/><path stroke="#284858" d="M22,20h1M22,21h1"/><path stroke="#000000" d="M26,21h1M9,22h1M25,22h1M9,23h1M22,23h2M10,24h1M10,25h1M19,25h4M11,26h2M13,27h2M15,28h1M16,29h3"/><path stroke="#d8a830" d="M20,26h1"/></svg>
