<svg xmlns="http://www.w3.org/2000/svg" shape-rendering="crispEdges" viewBox="0 -0.5 32 32" width="32" height="32"><path stroke="#603000" d="M13,7h3M13,8h1M16,8h2M14,9h2M18,9h3M11,10h1M14,10h3M21,10h2M9,11h2M17,11h2M23,11h1M8,12h1M13,12h2M24,12h4M7,13h1M13,13h1M15,13h2M28,13h1M6,14h1M15,14h1M28,14h1M12,15h2M14,16h1M14,18h2M24,18h1M21,19h1M12,22h1M16,22h1M19,22h1M4,23h1M6,23h2M11,23h1M17,23h1M19,23h1M4,24h1M8,24h3M18,24h1M5,25h1M6,26h1M13,26h1M7,27h3M18,27h1M10,28h4"/><path stroke="#c85828" d="M14,8h2M16,9h2M17,10h2M16,11h1M15,12h1M18,13h1M24,13h1M17,14h3M21,14h1M11,15h1M16,15h2M19,15h1M26,15h1M8,16h1M11,16h1M16,16h2M20,16h1M27,16h1M6,17h1M11,17h1M16,17h3M25,17h1M12,18h1M16,18h3M23,18h1M5,19h1M13,19h7M15,20h4M14,21h2M13,22h2M17,22h1M5,23h1M13,23h1M5,24h3M11,24h3M6,25h6M13,25h2M18,25h1M8,26h4M14,26h2M11,27h2M15,27h2M15,28h2"/><path stroke="#000000" d="M12,10h2M12,11h1M11,13h2M8,14h3M13,14h1M6,15h2M15,15h1M28,15h1M5,16h1M12,16h1M15,16h1M28,16h1M4,17h1M12,17h1M14,17h1M27,17h1M4,18h1M13,18h1M25,18h2M3,19h1M22,19h2M3,20h1M3,21h1M5,21h1M3,22h2M13,27h1M14,28h1M18,28h1M15,29h3"/><path stroke="#f87838" d="M19,10h2M13,11h3M19,11h4M16,12h8M19,13h5M25,13h3M11,14h2M22,14h6M8,15h3M18,15h1M24,15h2M27,15h1M6,16h2M18,16h2M23,16h4M5,17h1M19,17h6M5,18h1M20,18h3M4,19h1M4,20h1M4,21h1M17,21h1M15,22h1M18,22h1M14,23h3M18,23h1M14,24h4M15,25h3M16,26h2"/><path stroke="#c01020" d="M4,11h1M5,12h1M4,13h2M3,14h3M3,15h1M5,15h1M2,16h1M2,17h1M2,18h2"/><path stroke="#904020" d="M11,11h1M9,12h4M8,13h3M17,13h1M7,14h1M16,14h1M23,15h1M13,16h1M13,17h1M15,17h1M19,18h1M20,19h1M16,21h1M18,21h1M5,22h1M12,23h1M19,24h1M12,25h1M7,26h1M12,26h1M18,26h1M10,27h1M14,27h1M17,27h1"/><path stroke="#a0a0a0" d="M20,14h1M26,17h1M17,28h1"/><path stroke="#f8b810" d="M4,15h1M3,16h2M3,17h1"/><path stroke="#d8d8f8" d="M20,15h2M21,16h1"/><path stroke="#284858" d="M22,15h1M10,16h1M10,17h1M9,18h3M9,19h4M6,20h2M9,20h6M8,21h3M13,21h1M9,22h1"/><path stroke="#408080" d="M9,16h1M22,16h1M7,17h3M6,18h3M6,19h3M5,20h1M8,20h1"/><path stroke="#d8a830" d="M19,20h1M19,21h1M20,25h1M19,26h1"/><path stroke="#604000" d="M20,20h1M20,21h1M21,22h1M21,23h1M21,24h1M21,25h1M20,26h1M19,27h1"/><path stroke="#f0d070" d="M20,22h1M20,23h1M20,24h1M19,25h1"/></svg>
