<svg xmlns="http://www.w3.org/2000/svg" shape-rendering="crispEdges" viewBox="0 -0.5 32 32" width="32" height="32"><path stroke="#2f3f34" d="M12,7h2M12,8h1M14,8h2M13,9h1M16,9h2M14,10h1M19,10h2M11,14h1M13,14h1M8,15h3M7,16h1M11,16h1M23,22h1M9,23h1M24,23h1M15,26h2M21,26h1M13,27h2M12,28h1"/><path stroke="#a99e85" d="M13,8h1M14,9h2M15,10h1M18,11h1M12,12h1M21,12h2M24,12h1M13,13h1M20,13h1M26,13h1M14,14h1M16,14h1M11,15h1M19,15h1M27,15h1M8,16h1M12,16h1M19,16h3M26,16h1M12,17h1M21,17h3M9,18h3M21,18h3M9,19h1M24,19h3M13,20h1M21,20h1M27,20h1M12,21h1M22,21h1M24,21h1M12,22h1M14,22h1M12,23h2M11,24h2M17,24h1M11,25h1M15,25h1M17,25h1M12,26h3M9,27h1M15,27h5M17,28h1"/><path stroke="#101010" d="M9,9h3M9,10h1M12,10h2M16,10h3M10,11h1M14,11h2M21,11h4M11,12h1M16,12h2M25,12h2M12,13h1M27,13h1M27,14h1M18,15h1M28,15h1M9,16h2M18,16h1M24,16h1M28,16h1M7,17h2M25,17h1M6,18h1M25,18h1M7,19h2M9,20h1M15,20h2M9,21h1M17,21h4M23,21h1M26,21h1M9,22h1M19,22h1M21,22h2M24,22h2M7,23h2M14,23h1M18,23h1M20,23h2M5,24h2M15,24h1M22,24h1M4,25h1M10,25h1M16,25h1M22,25h1M5,26h5M17,26h1M19,26h1M22,26h1M8,27h1M20,27h1M22,27h1M8,28h1M20,28h2M8,29h1M12,29h1M9,30h4"/><path stroke="#ddd4b9" d="M10,10h2M11,11h3M16,11h2M13,12h3M23,12h1M14,13h3M21,13h5M12,14h1M15,14h1M20,14h7M12,15h4M20,15h7M13,16h1M22,16h2M25,16h1M9,17h3M24,17h1M7,18h2M24,18h1M13,21h2M15,23h1M13,24h2M16,24h1M7,25h3M12,25h3M18,25h1M11,26h1M10,27h3M9,28h3M9,29h1"/><path stroke="#d95f61" d="M19,11h1M18,12h1M17,13h1M17,14h1M16,15h1M14,16h3M13,17h1M16,17h1M12,18h1M17,18h1M10,19h2M18,19h1M27,19h2M10,20h1M28,20h1"/><path stroke="#54bb4f" d="M20,11h1M19,12h1M18,13h1M18,14h1M17,15h1M17,16h1M14,17h2M13,18h1M16,18h1M12,19h1M17,19h1M11,20h1M16,22h3M19,23h1M22,23h2M7,24h2M19,24h3M5,25h2M21,25h1"/><path stroke="#29241f" d="M20,12h1M19,13h1M19,14h1M17,17h4M28,17h1M14,18h2M20,18h1M28,18h1M13,19h1M16,19h1M19,19h1M29,19h1M12,20h1M20,20h1M29,20h1M11,21h1M28,21h1M11,22h1M13,22h1M27,22h1M11,23h1M10,24h1M24,24h1M24,25h1M10,26h1M18,26h1M23,26h1M15,28h2M17,29h4"/><path stroke="#736049" d="M27,16h1M26,17h2M26,18h2M23,24h1M23,25h1M20,26h1M21,27h1M18,28h2M10,29h2"/><path stroke="#efe8d5" d="M18,18h2M20,19h4M22,20h5M21,21h1M25,21h1M27,21h1"/><path stroke="#4a9065" d="M14,19h2M14,20h1M17,20h3M10,21h1M15,21h2M10,22h1M15,22h1M20,22h1M10,23h1M16,23h2M9,24h1M18,24h1M19,25h2"/></svg>
