<svg xmlns="http://www.w3.org/2000/svg" shape-rendering="crispEdges" viewBox="0 -0.5 32 32" width="32" height="32"><path stroke="#101010" d="M12,13h3M12,14h1M17,14h1M13,15h1M16,15h1M18,15h1M12,16h1M16,16h1M13,17h1M16,17h1M14,18h1M14,19h1M14,20h1M20,20h1M23,20h1M14,21h1M20,21h1M23,21h1M15,22h1M17,22h1M22,22h1M16,23h1M20,23h2M16,24h1M18,24h2M15,25h2M19,25h1M12,26h3M17,26h1M20,26h1M11,27h1M18,27h3M12,28h2M17,28h1M14,29h3"/><path stroke="#204228" d="M18,13h1M15,14h1M19,14h1M19,15h3M15,16h1M18,16h1M14,17h1M18,17h1M16,20h1M15,21h1M15,23h1M15,24h1M14,27h1"/><path stroke="#54bb4f" d="M13,14h2M14,15h1M17,15h1M13,16h1M17,16h1M19,16h1M17,17h1M15,18h3M17,19h1M17,20h1M16,21h2M16,22h1"/><path stroke="#44a05d" d="M18,14h1M15,15h1M14,16h1M20,16h1M15,17h1M19,17h1M18,18h1M15,19h2M15,20h1M15,26h1M13,27h1"/><path stroke="#8a6146" d="M21,16h1M20,17h2M18,20h1M18,21h1M17,24h1M17,25h2M18,26h2"/><path stroke="#4a271e" d="M22,16h1M22,17h1M23,18h1M23,19h1M17,23h2M14,28h1"/><path stroke="#d8a878" d="M19,18h4M18,19h2M21,19h2M19,20h1M21,20h2M19,21h1M21,21h1M19,22h3M15,27h3M15,28h1"/><path stroke="#e6e2de" d="M20,19h1M16,28h1"/><path stroke="#cb5e49" d="M22,21h1"/><path stroke="#c4825a" d="M18,22h1M19,23h1M16,26h1"/><path stroke="#faa692" d="M12,27h1"/></svg>
