<svg xmlns="http://www.w3.org/2000/svg" shape-rendering="crispEdges" viewBox="0 -0.5 32 32" width="32" height="32"><path stroke="#683828" d="M14,11h2M13,12h1M15,12h1M13,13h1M16,13h2M12,14h1M18,14h1M12,15h1M11,16h1M13,16h1M11,17h1M21,17h1M11,18h1M22,18h1M11,19h1M22,19h1M11,20h1M11,21h1M13,21h1M12,22h2M13,23h1M20,23h1M14,24h1M17,24h1M14,25h1M18,25h1M15,26h2M19,26h1M19,27h1M17,28h1"/><path stroke="#f08010" d="M14,12h1M14,13h1M13,14h3M17,14h1M14,15h2M17,15h3M16,16h5M13,17h8M12,18h7M20,18h2M12,19h2M17,19h1M21,19h1M12,20h1M16,25h1"/><path stroke="#b86010" d="M15,13h1M16,14h1M13,15h1M16,15h1M12,16h1M14,16h2M12,17h1M16,19h1M12,21h1M15,25h1M17,25h1M14,26h1M13,27h4"/><path stroke="#000000" d="M19,14h1M20,15h1M21,16h1M14,19h2M13,20h1M16,20h1M22,20h1M22,21h1M19,22h1M22,22h1M14,23h1M21,23h1M15,24h1M18,24h2M17,27h2M13,28h1M16,28h1M14,29h2"/><path stroke="#f8e8a8" d="M19,18h1M18,19h3M14,20h2M17,20h1M20,20h2M16,21h1M21,21h1"/><path stroke="#a05850" d="M18,20h1M19,21h1"/><path stroke="#d05040" d="M19,20h1M15,21h1M15,22h2M16,23h1"/><path stroke="#d8b870" d="M14,21h1M20,21h1M14,22h1M17,22h1M20,22h2M15,23h1M18,23h2M18,26h1"/><path stroke="#c09048" d="M17,21h1M17,23h1M16,24h1M17,26h1M14,28h2"/><path stroke="#c0c0c0" d="M18,21h1"/><path stroke="#e8e8f8" d="M18,22h1"/><path stroke="#801010" d="M8,24h5M8,25h1M13,25h1M9,26h1M13,26h1M10,27h1M11,28h2"/><path stroke="#f8c000" d="M9,25h1M11,25h2M12,26h1"/><path stroke="#f03828" d="M10,25h1M10,26h2M11,27h2"/></svg>
