<svg xmlns="http://www.w3.org/2000/svg" shape-rendering="crispEdges" viewBox="0 -0.5 32 32" width="32" height="32"><path stroke="#424242" d="M10,1h3M9,2h1M13,2h2M15,3h1M16,4h1M16,5h1M16,6h1M17,7h1M17,8h1M17,9h1M13,11h2M15,12h1M12,13h3M15,14h1M17,19h1M12,20h3M18,20h1M18,21h1M19,22h1"/><path stroke="#cccccc" d="M10,2h3M11,3h1M14,3h1M12,4h1M15,4h1M12,5h1M15,5h1M12,6h1M13,7h1M13,8h1M14,9h2M13,10h2M12,12h1M15,13h2M13,14h1M14,15h3M13,16h1M19,16h2M15,17h5M16,20h1M13,21h1M16,21h1M14,22h1M17,22h1"/><path stroke="#000000" d="M10,3h1M11,4h1M11,5h1M11,6h1M12,7h1M12,8h1M13,9h1M12,10h1M12,11h1M21,11h1M11,12h1M13,12h1M11,13h1M11,14h2M12,15h2M12,16h1M14,16h3M22,16h1M13,17h2M20,17h2M15,18h1M19,18h1M15,19h1M18,19h1M15,20h1M12,21h1M15,21h1M13,22h1M16,22h1M17,23h3M13,26h1M17,26h1M14,27h1M17,27h1M14,28h1M17,28h1M15,29h1M18,29h1M15,30h4"/><path stroke="#f7f7f7" d="M12,3h2M13,4h2M13,5h1M17,13h1M17,14h1M19,14h1"/><path stroke="#ececec" d="M14,5h1M13,6h2M14,7h1M14,8h2M16,9h1M14,12h1M14,14h1M20,15h1M17,16h2M17,20h1M14,21h1M17,21h1M18,22h1"/><path stroke="#6f1d00" d="M17,5h2M19,6h1M20,7h1M21,8h1M21,9h1M14,23h1M14,24h1M18,24h1M14,25h1M18,25h1"/><path stroke="#d8cc39" d="M15,6h1M15,7h2M16,8h1M16,11h1M17,12h1M21,14h1M21,15h1M15,26h2"/><path stroke="#ff763a" d="M17,6h2M18,7h2"/><path stroke="#e24a08" d="M18,8h2M18,9h2M18,13h1M16,25h1M17,29h1"/><path stroke="#b93100" d="M20,8h1M20,9h1M18,10h2M19,11h2M18,14h1M18,15h2M21,16h1M15,23h1M15,24h1M17,24h1M15,25h1M17,25h1"/><path stroke="#686108" d="M15,10h3M20,10h1M22,10h1M15,11h1M18,11h1M16,12h1M19,12h2M22,12h1M20,13h1M22,13h1M22,14h1M22,15h1"/><path stroke="#fbef58" d="M21,10h1M17,11h1M18,12h1M21,12h1M19,13h1M21,13h1M20,14h1M16,24h1M14,26h1M15,27h1"/><path stroke="#072b5a" d="M16,14h1M17,15h1M17,18h1M16,19h1M16,23h1M16,27h1M16,28h1"/><path stroke="#001c3c" d="M16,18h1M18,18h1M15,22h1M15,28h1M16,29h1"/></svg>
