<svg xmlns="http://www.w3.org/2000/svg" shape-rendering="crispEdges" viewBox="0 -0.5 32 32" width="32" height="32"><path stroke="#a02828" d="M15,15h1M8,16h1M14,16h1M8,17h1M12,17h1M14,17h1M8,18h4M5,19h2M9,19h1M6,20h1M7,21h1M6,22h2M8,23h3"/><path stroke="#801818" d="M12,16h1M9,17h1M11,17h1M13,17h1M12,18h1M7,19h2M8,22h1M7,23h1M8,24h1"/><path stroke="#d03830" d="M15,16h1M13,18h1M11,19h1M7,20h4M12,20h1M8,21h2M10,22h1"/><path stroke="#203050" d="M17,16h4M15,17h2M21,17h2M23,18h1M23,19h1M24,20h1M12,21h1M24,21h1M24,22h1"/><path stroke="#6080e0" d="M17,17h4M16,18h6M15,19h8M21,20h2M22,21h1M22,22h1M22,23h2M22,24h2"/><path stroke="#000000" d="M14,18h1M14,19h1M13,20h1M13,21h1M13,22h1M13,23h1M19,23h1M24,23h1M9,24h1M14,24h1M20,24h1M24,24h1M9,25h1M25,25h1M10,26h1M17,26h3M25,26h1M11,27h1M16,27h1M12,28h1M13,29h2"/><path stroke="#484870" d="M15,18h1M22,18h1M23,20h1M23,21h1"/><path stroke="#f0a010" d="M10,19h1M12,19h2M11,20h1M10,21h2M9,22h1M11,22h1"/><path stroke="#5060a0" d="M14,20h2M14,21h1M12,22h1M14,22h1M23,22h1M11,23h2M14,23h1M10,24h4M15,24h1M10,25h2M16,25h1M23,25h2"/><path stroke="#d0a818" d="M16,20h1M20,20h1M15,21h1M21,21h1M15,22h1M15,23h1M16,24h1M14,25h2M17,25h2M11,26h1M22,26h3M12,27h4"/><path stroke="#f8d060" d="M17,20h3M16,21h5M16,22h6M16,23h2M20,23h2M17,24h3M21,24h1M12,25h2M19,25h4M12,26h3M16,26h1"/><path stroke="#584010" d="M18,23h1M15,26h1M20,26h2M17,27h1M22,27h3"/><path stroke="#a8b8d0" d="M13,28h1"/><path stroke="#e8e8f8" d="M14,28h1"/><path stroke="#384050" d="M15,28h2"/></svg>
